<svg width="989" height="633" viewBox="0 0 989 633" fill="none" xmlns="http://www.w3.org/2000/svg">
<path d="M14.4172 247.407C-54.4336 -2.08685 200.616 -27.4823 384.677 47.8518C492.068 86.5951 562.593 -33.8937 695.63 14.1919C828.667 62.2774 669.183 213.747 872.745 291.486C1076.31 369.224 976.93 717.043 799.014 721.05C621.097 725.057 669.984 783.561 492.068 917.399C314.151 1051.24 14.4176 865.307 88.9502 668.957C163.483 472.608 88.9493 517.488 14.4172 247.407Z" stroke="white" stroke-opacity="0.04" stroke-width="5"/>
<path d="M397.336 441.574C389.392 417.811 426.601 379.476 456.521 395.836C483.919 410.818 511.819 400.714 530.252 407.393C578.779 424.976 560.929 434.283 582.621 455.167C609.018 480.578 621.614 547.121 560.929 547.121C511.018 547.121 525.952 571.362 488.578 582.103C451.204 592.844 408.819 574.561 408.819 526.425C408.819 508.348 410.567 481.152 397.336 441.574Z" stroke="white" stroke-opacity="0.04" stroke-width="5"/>
<path d="M49.2232 263.846C-14.0906 34.8737 221.155 8.30192 391.203 78.2747C491.322 114.858 557.973 4.40404 680.591 48.7254C805.945 94.038 659.337 232.584 846.366 305.154C1033.82 378.135 944.624 700.383 777.365 704.026C611.085 707.669 656.886 763.058 491.746 885.706C326.606 1008.35 50.2675 837.663 118.024 654.787C185.781 474.645 118.183 512.972 49.2232 263.846Z" stroke="white" stroke-opacity="0.04" stroke-width="5"/>
<path d="M84.0294 280.286C26.2526 71.8347 241.694 44.0866 397.73 108.698C490.577 143.121 553.352 42.7023 665.552 83.2594C783.223 125.799 649.491 251.421 819.986 318.822C991.337 387.047 912.318 683.724 755.716 687.003C601.073 690.281 643.787 742.556 491.424 854.013C339.06 965.47 86.1176 810.02 147.099 640.619C208.08 476.682 147.416 508.458 84.0294 280.286Z" stroke="white" stroke-opacity="0.04" stroke-width="5"/>
<path d="M118.836 296.728C66.5957 108.797 262.234 79.8724 404.256 139.123C489.831 171.386 548.732 81.0017 650.513 117.795C760.501 157.561 639.645 270.259 793.607 332.492C948.851 395.959 880.012 667.066 734.068 669.981C591.062 672.895 630.689 722.055 491.102 822.321C351.515 922.587 121.968 782.378 176.173 626.451C230.379 478.721 176.649 503.944 118.836 296.728Z" stroke="white" stroke-opacity="0.04" stroke-width="5"/>
<path d="M153.642 313.17C106.939 145.76 282.774 115.659 410.784 169.548C489.087 199.651 544.112 119.302 635.474 152.331C737.78 189.324 629.8 289.099 767.228 346.162C906.366 404.873 847.707 650.409 712.419 652.959C581.05 655.509 617.591 701.554 490.781 790.63C363.97 879.706 157.818 754.737 205.248 612.284C252.678 480.761 205.883 499.431 153.642 313.17Z" stroke="white" stroke-opacity="0.04" stroke-width="5"/>
<path d="M188.449 330.445C147.283 183.557 303.314 152.279 417.311 200.807C488.342 228.75 539.492 158.436 620.436 187.7C715.059 221.921 619.955 308.772 740.849 360.667C863.881 414.62 815.401 634.586 690.771 636.772C571.039 638.958 604.493 681.888 490.459 759.773C376.426 837.658 193.669 727.93 234.323 598.95C274.977 483.634 235.117 495.752 188.449 330.445Z" stroke="white" stroke-opacity="0.04" stroke-width="5"/>
<path d="M223.257 348.706C187.628 222.338 323.855 189.885 423.839 233.051C487.598 258.834 534.873 198.555 605.399 224.055C692.339 255.503 610.11 329.429 714.471 376.156C821.397 425.352 783.097 619.748 669.124 621.569C561.029 623.391 591.396 663.206 490.139 729.9C388.882 796.595 229.521 702.108 263.399 586.602C297.277 487.492 264.352 493.058 223.257 348.706Z" stroke="white" stroke-opacity="0.04" stroke-width="5"/>
<path d="M258.065 367.021C227.973 261.175 344.397 227.545 430.368 265.35C486.855 288.972 530.255 238.728 590.362 260.464C669.62 289.139 600.267 350.142 688.094 391.7C778.914 436.139 750.793 604.964 647.478 606.421C551.019 607.878 578.3 644.579 489.819 700.083C401.339 755.586 265.373 676.34 292.476 574.308C319.579 491.405 293.588 490.418 258.065 367.021Z" stroke="white" stroke-opacity="0.04" stroke-width="5"/>
<path d="M292.875 385.416C268.32 300.09 364.94 265.284 436.898 297.728C486.113 319.19 525.638 278.981 575.326 296.953C646.901 322.855 590.424 370.934 661.717 407.323C736.432 447.005 718.49 590.26 625.832 591.352C541.011 592.445 565.204 626.031 489.501 670.344C413.797 714.657 301.226 650.652 321.553 562.094C341.88 495.397 322.824 487.858 292.875 385.416Z" stroke="white" stroke-opacity="0.04" stroke-width="5"/>
<path d="M327.687 403.926C308.669 339.122 385.486 303.139 443.431 330.222C485.374 349.524 521.024 319.35 560.294 333.557C624.186 356.686 580.584 391.841 635.344 423.062C693.953 457.988 686.19 575.671 604.19 576.4C531.005 577.128 552.112 607.599 489.185 640.722C426.258 673.844 337.083 625.079 350.634 549.995C364.186 499.505 352.064 485.414 327.687 403.926Z" stroke="white" stroke-opacity="0.04" stroke-width="5"/>
<path d="M362.505 422.613C349.024 378.329 406.037 341.17 449.969 362.892C484.64 380.034 516.415 359.895 545.266 370.338C601.475 390.694 570.75 412.925 608.976 438.977C651.479 469.146 653.896 561.259 582.553 561.623C521.005 561.988 539.025 589.344 488.875 611.276C438.724 633.207 372.944 599.683 379.72 538.073C386.496 503.79 381.309 483.146 362.505 422.613Z" stroke="white" stroke-opacity="0.04" stroke-width="5"/>
</svg>
