<svg width="40" height="40" viewBox="0 0 40 40" fill="none" xmlns="http://www.w3.org/2000/svg">
<circle cx="20" cy="20" r="20" fill="#616161"/>
<path d="M20 17.0059C18.125 17.0059 16.6309 18.5293 16.6309 20.375C16.6309 22.25 18.125 23.7441 20 23.7441C21.8457 23.7441 23.3691 22.25 23.3691 20.375C23.3691 18.5293 21.8457 17.0059 20 17.0059ZM20 22.5723C18.7988 22.5723 17.8027 21.6055 17.8027 20.375C17.8027 19.1738 18.7695 18.207 20 18.207C21.2012 18.207 22.168 19.1738 22.168 20.375C22.168 21.6055 21.2012 22.5723 20 22.5723ZM24.2773 16.8887C24.2773 16.4492 23.9258 16.0977 23.4863 16.0977C23.0469 16.0977 22.6953 16.4492 22.6953 16.8887C22.6953 17.3281 23.0469 17.6797 23.4863 17.6797C23.9258 17.6797 24.2773 17.3281 24.2773 16.8887ZM26.5039 17.6797C26.4453 16.625 26.2109 15.6875 25.4492 14.9258C24.6875 14.1641 23.75 13.9297 22.6953 13.8711C21.6113 13.8125 18.3594 13.8125 17.2754 13.8711C16.2207 13.9297 15.3125 14.1641 14.5215 14.9258C13.7598 15.6875 13.5254 16.625 13.4668 17.6797C13.4082 18.7637 13.4082 22.0156 13.4668 23.0996C13.5254 24.1543 13.7598 25.0625 14.5215 25.8535C15.3125 26.6152 16.2207 26.8496 17.2754 26.9082C18.3594 26.9668 21.6113 26.9668 22.6953 26.9082C23.75 26.8496 24.6875 26.6152 25.4492 25.8535C26.2109 25.0625 26.4453 24.1543 26.5039 23.0996C26.5625 22.0156 26.5625 18.7637 26.5039 17.6797ZM25.0977 24.2422C24.8926 24.8281 24.4238 25.2676 23.8672 25.502C22.9883 25.8535 20.9375 25.7656 20 25.7656C19.0332 25.7656 16.9824 25.8535 16.1328 25.502C15.5469 25.2676 15.1074 24.8281 14.873 24.2422C14.5215 23.3926 14.6094 21.3418 14.6094 20.375C14.6094 19.4375 14.5215 17.3867 14.873 16.5078C15.1074 15.9512 15.5469 15.5117 16.1328 15.2773C16.9824 14.9258 19.0332 15.0137 20 15.0137C20.9375 15.0137 22.9883 14.9258 23.8672 15.2773C24.4238 15.4824 24.8633 15.9512 25.0977 16.5078C25.4492 17.3867 25.3613 19.4375 25.3613 20.375C25.3613 21.3418 25.4492 23.3926 25.0977 24.2422Z" fill="white"/>
</svg>
