<svg width="488" height="1046" viewBox="0 0 488 1046" fill="none" xmlns="http://www.w3.org/2000/svg">
<path d="M-569.502 266.891C-644.304 -4.171 -367.207 -31.7618 -167.234 50.0847C-50.5595 92.1773 26.0627 -38.7275 170.6 13.515C315.138 65.7574 141.867 230.321 363.027 314.78C584.187 399.239 476.218 777.125 282.921 781.479C89.6243 785.833 142.737 849.394 -50.5596 994.803C-243.857 1140.21 -569.501 938.206 -488.525 724.883C-407.55 511.56 -488.526 560.319 -569.502 266.891Z" stroke="#A0A0A0" stroke-opacity="0.15" stroke-width="2"/>
<path d="M-153.48 477.843C-162.111 452.026 -121.686 410.377 -89.1793 428.151C-59.4125 444.428 -29.1006 433.451 -9.07428 440.707C43.6473 459.81 24.2545 469.922 47.8224 492.611C76.5014 520.219 90.1863 592.514 24.2545 592.514C-29.9713 592.514 -13.7464 618.851 -54.3512 630.521C-94.9559 642.191 -141.005 622.326 -141.005 570.029C-141.005 550.39 -139.106 520.842 -153.48 477.843Z" stroke="#A0A0A0" stroke-opacity="0.15" stroke-width="2"/>
<path d="M-531.687 284.751C-600.474 35.9845 -344.892 7.11567 -160.144 83.1375C-51.3695 122.883 21.0427 2.88083 154.261 51.0336C290.452 100.263 131.17 250.786 334.367 329.629C538.028 408.92 441.119 759.026 259.401 762.983C78.7468 766.941 128.507 827.119 -50.9095 960.369C-230.325 1093.62 -530.552 908.173 -456.938 709.488C-383.324 513.773 -456.766 555.413 -531.687 284.751Z" stroke="#A0A0A0" stroke-opacity="0.15" stroke-width="2"/>
<path d="M-493.872 302.613C-556.643 76.1408 -322.577 45.9939 -153.053 116.191C-52.1793 153.59 16.0228 44.4899 137.922 88.5531C265.766 134.77 120.473 271.252 305.707 344.48C491.87 418.602 406.021 740.927 235.881 744.489C67.8694 748.051 114.276 804.844 -51.2591 925.936C-216.794 1047.03 -491.603 878.14 -425.35 694.094C-359.097 515.986 -425.006 550.508 -493.872 302.613Z" stroke="#A0A0A0" stroke-opacity="0.15" stroke-width="2"/>
<path d="M-456.056 320.475C-512.812 116.299 -300.262 84.8735 -145.962 149.246C-52.9891 184.298 11.0031 86.1004 121.583 126.074C241.08 169.279 109.776 291.719 277.047 359.331C445.712 428.285 370.922 722.829 212.361 725.995C56.9922 729.161 100.045 782.571 -51.6088 891.505C-203.263 1000.44 -452.654 848.109 -393.762 678.702C-334.871 518.202 -393.245 545.605 -456.056 320.475Z" stroke="#A0A0A0" stroke-opacity="0.15" stroke-width="2"/>
<path d="M-418.241 338.338C-468.981 156.457 -277.946 123.754 -138.87 182.301C-53.7984 215.006 5.9837 127.711 105.244 163.595C216.394 203.787 99.0793 312.187 248.388 374.183C399.554 437.969 335.823 704.732 188.841 707.502C46.1153 710.273 85.8146 760.298 -51.958 857.074C-189.731 953.85 -413.704 818.078 -362.174 663.31C-310.644 520.417 -361.484 540.702 -418.241 338.338Z" stroke="#A0A0A0" stroke-opacity="0.15" stroke-width="2"/>
<path d="M-380.425 357.108C-425.15 197.521 -255.63 163.54 -131.779 216.263C-54.6076 246.621 0.964478 170.228 88.9059 202.022C191.709 239.202 88.3828 333.56 219.728 389.941C353.397 448.559 300.725 687.541 165.322 689.915C35.2386 692.29 71.5844 738.931 -52.307 823.549C-176.199 908.167 -374.754 788.954 -330.585 648.824C-286.417 523.539 -329.723 536.705 -380.425 357.108Z" stroke="#A0A0A0" stroke-opacity="0.15" stroke-width="2"/>
<path d="M-342.608 376.947C-381.317 239.655 -233.314 204.396 -124.686 251.294C-55.4157 279.306 -4.05368 213.816 72.5686 241.52C167.025 275.687 77.6875 356.004 191.07 406.77C307.24 460.22 265.628 671.42 141.803 673.399C24.363 675.378 57.3553 718.635 -52.6551 791.095C-162.665 863.555 -335.803 760.9 -298.996 635.409C-262.189 527.731 -297.961 533.778 -342.608 376.947Z" stroke="#A0A0A0" stroke-opacity="0.15" stroke-width="2"/>
<path d="M-304.791 396.845C-337.484 281.848 -210.996 245.311 -117.593 286.385C-56.223 312.049 -9.07101 257.462 56.2321 281.077C142.341 312.231 66.9929 378.507 162.412 423.657C261.084 471.938 230.532 655.358 118.285 656.941C13.4882 658.524 43.127 698.397 -53.0022 758.699C-149.131 819.001 -296.851 732.904 -267.406 622.052C-237.96 531.982 -266.197 530.91 -304.791 396.845Z" stroke="#A0A0A0" stroke-opacity="0.15" stroke-width="2"/>
<path d="M-266.972 416.83C-293.65 324.128 -188.677 286.313 -110.498 321.562C-57.0293 344.879 -14.0873 301.194 39.8965 320.72C117.659 348.861 56.2994 401.096 133.756 440.631C214.93 483.744 195.436 639.382 94.7687 640.57C2.61435 641.757 28.8997 678.246 -53.3484 726.39C-135.597 774.534 -257.899 704.995 -235.814 608.781C-213.73 536.319 -234.433 528.128 -266.972 416.83Z" stroke="#A0A0A0" stroke-opacity="0.15" stroke-width="2"/>
<path d="M-229.15 436.941C-249.812 366.534 -166.355 327.441 -103.4 356.865C-57.8322 377.835 -19.1002 345.053 23.5645 360.488C92.9799 385.617 45.6093 423.811 105.103 457.73C168.778 495.675 160.345 623.533 71.2555 624.324C-8.25598 625.116 14.6759 658.221 -53.6911 694.207C-122.058 730.192 -218.942 677.212 -204.219 595.637C-189.497 540.782 -202.666 525.473 -229.15 436.941Z" stroke="#A0A0A0" stroke-opacity="0.15" stroke-width="2"/>
<path d="M-191.323 457.243C-205.969 409.131 -144.028 368.76 -96.2973 392.359C-58.6299 410.983 -24.1079 389.103 7.23758 400.449C68.3061 422.565 34.9244 446.718 76.4552 475.022C122.632 507.799 125.258 607.875 47.7475 608.27C-19.1212 608.666 0.45726 638.387 -54.0287 662.215C-108.515 686.043 -179.981 649.62 -172.62 582.684C-165.258 545.437 -170.893 523.009 -191.323 457.243Z" stroke="#A0A0A0" stroke-opacity="0.15" stroke-width="2"/>
</svg>
