<svg width="158" height="127" viewBox="0 0 158 127" fill="none" xmlns="http://www.w3.org/2000/svg">
<path d="M9.95062 55.3276C12.6982 55.3276 15.186 56.4416 16.9866 58.2422C18.7873 60.0429 19.9012 62.5307 19.9012 65.2783C19.9012 68.0258 18.7873 70.5136 16.9866 72.3143C15.186 74.1149 12.6982 75.2289 9.95062 75.2289C7.20305 75.2289 4.71523 74.1149 2.91459 72.3143C1.11396 70.5136 0 68.0258 0 65.2783C0 62.5307 1.11396 60.0429 2.91459 58.2422C4.71523 56.4416 7.20305 55.3276 9.95062 55.3276ZM13.2832 61.9458C12.4307 61.0933 11.2522 60.5655 9.95062 60.5655C8.64904 60.5655 7.47056 61.0933 6.61804 61.9458C5.76552 62.7984 5.23776 63.9768 5.23776 65.2784C5.23776 66.58 5.76552 67.7585 6.61804 68.611C7.47056 69.4635 8.64904 69.9913 9.95062 69.9913C11.2522 69.9913 12.4307 69.4635 13.2832 68.611C14.1357 67.7585 14.6635 66.58 14.6635 65.2784C14.6635 63.9768 14.1357 62.7984 13.2832 61.9458Z" fill="#D3A475"/>
<path d="M63.0432 55.3276C65.7907 55.3276 68.2785 56.4416 70.0792 58.2422C71.8798 60.0429 72.9938 62.5307 72.9938 65.2783C72.9938 68.0258 71.8798 70.5136 70.0792 72.3143C68.2785 74.1149 65.7907 75.2289 63.0432 75.2289C60.2956 75.2289 57.8078 74.1149 56.0071 72.3143C54.2065 70.5136 53.0925 68.0258 53.0925 65.2783C53.0925 62.5307 54.2065 60.0429 56.0071 58.2422C57.8078 56.4416 60.2956 55.3276 63.0432 55.3276ZM66.3757 61.9458C65.5232 61.0933 64.3448 60.5655 63.0432 60.5655C61.7416 60.5655 60.5631 61.0933 59.7106 61.9458C58.8581 62.7984 58.3303 63.9768 58.3303 65.2784C58.3303 66.58 58.8581 67.7585 59.7106 68.611C60.5631 69.4635 61.7416 69.9913 63.0432 69.9913C64.3448 69.9913 65.5232 69.4635 66.3757 68.611C67.2282 67.7585 67.756 66.58 67.756 65.2784C67.756 63.9768 67.2282 62.7984 66.3757 61.9458Z" fill="#D3A475"/>
<path d="M102.703 25.8025C105.45 25.8025 107.938 26.9164 109.739 28.7171C111.54 30.5177 112.653 33.0055 112.653 35.7531C112.653 38.5007 111.54 40.9885 109.739 42.7891C107.938 44.5898 105.45 45.7037 102.703 45.7037C99.9553 45.7037 97.4675 44.5898 95.6669 42.7891C93.8662 40.9885 92.7523 38.5007 92.7523 35.7531C92.7523 33.0055 93.8662 30.5177 95.6669 28.7171C97.4675 26.9164 99.9553 25.8025 102.703 25.8025ZM106.035 32.4207C105.183 31.5682 104.004 31.0404 102.703 31.0404C101.401 31.0404 100.223 31.5682 99.3703 32.4207C98.5178 33.2732 97.99 34.4517 97.99 35.7533C97.99 37.0549 98.5178 38.2333 99.3703 39.0858C100.223 39.9384 101.401 40.4661 102.703 40.4661C104.004 40.4661 105.183 39.9384 106.035 39.0858C106.888 38.2333 107.416 37.0549 107.416 35.7533C107.416 34.4517 106.888 33.2732 106.035 32.4207Z" fill="#D3A475"/>
<path d="M147.601 25.8025C150.348 25.8025 152.836 26.9164 154.637 28.7171C156.437 30.5177 157.551 33.0055 157.551 35.7531C157.551 38.5007 156.437 40.9885 154.637 42.7891C152.836 44.5898 150.348 45.7037 147.601 45.7037C144.853 45.7037 142.365 44.5898 140.565 42.7891C138.764 40.9885 137.65 38.5007 137.65 35.7531C137.65 33.0055 138.764 30.5177 140.565 28.7171C142.365 26.9164 144.853 25.8025 147.601 25.8025ZM150.933 32.4207C150.081 31.5682 148.902 31.0404 147.601 31.0404C146.299 31.0404 145.121 31.5682 144.268 32.4207C143.416 33.2732 142.888 34.4517 142.888 35.7533C142.888 37.0549 143.416 38.2333 144.268 39.0858C145.121 39.9384 146.299 40.4661 147.601 40.4661C148.902 40.4661 150.081 39.9384 150.933 39.0858C151.786 38.2333 152.314 37.0549 152.314 35.7533C152.314 34.4517 151.786 33.2732 150.933 32.4207Z" fill="#D3A475"/>
<path d="M91.5539 77.7837C94.3014 77.7837 96.7893 78.8976 98.5899 80.6983C100.391 82.4989 101.504 84.9867 101.504 87.7343C101.504 90.4819 100.391 92.9697 98.5899 94.7703C96.7893 96.571 94.3014 97.6849 91.5539 97.6849C88.8063 97.6849 86.3185 96.571 84.5178 94.7703C82.7172 92.9697 81.6032 90.4819 81.6032 87.7343C81.6032 84.9867 82.7172 82.4989 84.5178 80.6983C86.3185 78.8976 88.8063 77.7837 91.5539 77.7837ZM94.8865 84.4019C94.0339 83.5494 92.8555 83.0216 91.5539 83.0216C90.2523 83.0216 89.0738 83.5494 88.2213 84.4019C87.3688 85.2544 86.841 86.4329 86.841 87.7345C86.841 89.0361 87.3688 90.2145 88.2213 91.0671C89.0738 91.9196 90.2523 92.4473 91.5539 92.4473C92.8555 92.4473 94.0339 91.9196 94.8865 91.0671C95.739 90.2145 96.2667 89.0361 96.2667 87.7345C96.2667 86.4329 95.739 85.2544 94.8865 84.4019Z" fill="#D3A475"/>
<path d="M138.996 77.7837C141.744 77.7837 144.232 78.8976 146.032 80.6983C147.833 82.4989 148.947 84.9867 148.947 87.7343C148.947 90.4819 147.833 92.9697 146.032 94.7703C144.232 96.571 141.744 97.6849 138.996 97.6849C136.249 97.6849 133.761 96.571 131.96 94.7703C130.159 92.9697 129.046 90.4819 129.046 87.7343C129.046 84.9867 130.159 82.4989 131.96 80.6983C133.761 78.8976 136.249 77.7837 138.996 77.7837ZM142.329 84.4019C141.476 83.5494 140.298 83.0216 138.996 83.0216C137.695 83.0216 136.516 83.5494 135.664 84.4019C134.811 85.2544 134.283 86.4329 134.283 87.7345C134.283 89.0361 134.811 90.2145 135.664 91.0671C136.516 91.9196 137.695 92.4473 138.996 92.4473C140.298 92.4473 141.476 91.9196 142.329 91.0671C143.181 90.2145 143.709 89.0361 143.709 87.7345C143.709 86.4329 143.181 85.2544 142.329 84.4019Z" fill="#D3A475"/>
<path d="M140.268 38.3722H109.552C109.863 37.5587 110.034 36.6761 110.034 35.7531C110.034 34.8305 109.863 33.9478 109.552 33.1344L140.268 33.1343V35.7533V38.3724V38.3722ZM95.8525 38.3722H91.3117L69.6026 62.0015C68.8007 60.3992 67.4292 59.1319 65.7535 58.4646L89.0254 33.1346H95.8525C95.5412 33.9478 95.3703 34.8307 95.3703 35.7533C95.3703 36.6763 95.5412 37.5588 95.8525 38.3724V38.3722ZM56.1929 67.8974H16.7993C17.1105 67.0839 17.2814 66.2013 17.2814 65.2784C17.2814 64.3554 17.1105 63.4729 16.7993 62.6593H56.1929C55.8816 63.4729 55.7107 64.3554 55.7107 65.2784C55.7107 66.2013 55.8816 67.0839 56.1929 67.8974Z" fill="#D3A475"/>
<path d="M132.147 90.3531H98.4036C98.7148 89.5396 98.8857 88.657 98.8857 87.734C98.8857 86.8111 98.7148 85.9285 98.4036 85.115H132.147C131.836 85.9285 131.665 86.8111 131.665 87.734C131.665 88.657 131.836 89.5396 132.147 90.3531ZM84.7044 90.3531H77.4968L64.8498 72.3856C66.6188 71.9374 68.1314 70.8465 69.1246 69.3757L80.2035 85.1152H84.7046C84.3933 85.9287 84.2224 86.8113 84.2224 87.7342C84.2224 88.6572 84.3933 89.5398 84.7046 90.3533L84.7044 90.3531Z" fill="#D3A475"/>
<path d="M99.8021 8.278C102.088 8.278 103.941 6.4249 103.941 4.139C103.941 1.85309 102.088 0 99.8021 0C97.5162 0 95.6631 1.85309 95.6631 4.139C95.6631 6.4249 97.5162 8.278 99.8021 8.278Z" fill="#D3A475"/>
<path d="M127.863 18.8488C130.149 18.8488 132.002 16.9957 132.002 14.7098C132.002 12.4239 130.149 10.5708 127.863 10.5708C125.577 10.5708 123.724 12.4239 123.724 14.7098C123.724 16.9957 125.577 18.8488 127.863 18.8488Z" fill="#D3A475"/>
<path d="M15.8986 117.342C18.1845 117.342 20.0376 115.489 20.0376 113.203C20.0376 110.917 18.1845 109.064 15.8986 109.064C13.6127 109.064 11.7596 110.917 11.7596 113.203C11.7596 115.489 13.6127 117.342 15.8986 117.342Z" fill="#D3A475"/>
<path d="M14.4013 10.3588C14.4013 8.91231 15.5739 7.73975 17.0203 7.73975C18.4668 7.73975 19.6394 8.91231 19.6394 10.3588V13.9134H23.1941C24.6406 13.9134 25.8131 15.086 25.8131 16.5325C25.8131 17.979 24.6406 19.1515 23.1941 19.1515H19.6394V22.7062C19.6394 24.1527 18.4668 25.3252 17.0203 25.3252C15.5739 25.3252 14.4013 24.1527 14.4013 22.7062V19.1515H10.8466C9.40016 19.1515 8.2276 17.979 8.2276 16.5325C8.2276 15.086 9.40016 13.9134 10.8466 13.9134H14.4013V10.3588Z" fill="#D3A475"/>
<path d="M135.157 112.034C135.157 110.587 136.33 109.415 137.776 109.415C139.223 109.415 140.395 110.587 140.395 112.034V115.588H143.95C145.396 115.588 146.569 116.761 146.569 118.208C146.569 119.654 145.396 120.827 143.95 120.827H140.395V124.381C140.395 125.828 139.223 127 137.776 127C136.33 127 135.157 125.828 135.157 124.381V120.827H131.602C130.156 120.827 128.983 119.654 128.983 118.208C128.983 116.761 130.156 115.588 131.602 115.588H135.157V112.034Z" fill="#D3A475"/>
</svg>
