<svg width="139" height="139" viewBox="0 0 139 139" fill="none" xmlns="http://www.w3.org/2000/svg">
<path d="M69.2447 14.4752C76.8705 14.4752 83.7748 17.5755 88.7725 22.5876C93.7698 27.5999 96.8611 34.5244 96.8611 42.1726C96.8611 49.2882 94.185 55.7772 89.7877 60.6829V62.7783C93.0091 63.152 95.8983 64.6209 98.0748 66.8038C100.274 69.0093 101.747 71.9463 102.1 75.2192C104.057 75.9277 105.812 77.0605 107.254 78.507C109.792 81.0518 111.361 84.5679 111.361 88.4511C111.361 90.4085 110.962 92.2725 110.242 93.9659C110.579 94.2459 110.903 94.5417 111.212 94.8519C113.749 97.3968 115.319 100.913 115.319 104.796C115.319 108.679 113.749 112.195 111.212 114.74C108.895 117.064 105.77 118.578 102.297 118.824C102.072 122.344 100.556 125.512 98.2188 127.857C95.6813 130.402 92.1755 131.976 88.3037 131.976C84.4319 131.976 80.9262 130.401 78.3887 127.857C75.8513 125.312 74.2817 121.796 74.2817 117.913V89.8876C72.6941 90.3912 71 90.6636 69.2416 90.6636C67.5497 90.6636 65.9173 90.4113 64.3822 89.9439V117.913C64.3822 121.796 62.8125 125.312 60.2752 127.857C57.7377 130.402 54.2319 131.976 50.3602 131.976C46.4883 131.976 42.9826 130.401 40.4451 127.857C38.1079 125.512 36.5915 122.344 36.3671 118.824C32.8938 118.578 29.7692 117.064 27.4522 114.74C24.9148 112.195 23.3452 108.679 23.3452 104.796C23.3452 100.913 24.915 97.3968 27.4522 94.8519C27.7604 94.5429 28.0848 94.2463 28.4221 93.9659C27.7014 92.2725 27.3026 90.4085 27.3026 88.4511C27.3026 84.5679 28.8724 81.0518 31.4096 78.507C32.8518 77.0605 34.6068 75.9279 36.5641 75.2192C36.917 71.9463 38.3897 69.0097 40.5891 66.8038C42.7249 64.6617 45.5468 63.2074 48.6956 62.8006V60.6761C44.3019 55.7713 41.6282 49.2848 41.6282 42.1725C41.6282 34.5242 44.7194 27.5998 49.7169 22.5875C54.7145 17.5755 61.6187 14.4751 69.2446 14.4751L69.2447 14.4752ZM58.5261 39.7515H63.6605C64.5828 39.7515 65.4195 40.1283 66.0246 40.7352L66.0202 40.7395C66.6281 41.3508 67.0056 42.1889 67.0056 43.1061V48.8991H71.8289V43.1061C71.8289 42.1912 72.2045 41.3547 72.8097 40.7438L72.8184 40.735C73.4276 40.128 74.2616 39.7513 75.1739 39.7513H80.3083C81.2306 39.7513 82.0673 40.1282 82.6724 40.735L82.668 40.7394C83.2759 41.3506 83.6533 42.1888 83.6533 43.106V50.6744C83.6533 51.5993 83.2776 52.4385 82.6725 53.0453C82.0674 53.6522 81.2307 54.029 80.3085 54.029H77.3135V57.6354H86.6615C90.2971 53.5192 92.505 48.1043 92.505 42.1723C92.505 35.7302 89.9013 29.8979 85.6925 25.6765C81.4835 21.4553 75.668 18.844 69.2449 18.844C62.8216 18.844 57.0064 21.4553 52.7973 25.6765C48.5884 29.8978 45.9848 35.7301 45.9848 42.1723C45.9848 48.1042 48.1926 53.5191 51.8282 57.6354H61.5214V54.029H58.5263C57.6117 54.029 56.776 53.6505 56.1666 53.0408L56.1622 53.0452C55.5571 52.4383 55.1814 51.5992 55.1814 50.6742V43.1059C55.1814 42.1909 55.557 41.3544 56.1622 40.7435L56.1709 40.7348C56.7801 40.1277 57.6141 39.7511 58.5264 39.7511L58.5261 39.7515ZM72.9569 53.2683H65.8775V57.4426H72.9569V53.2683ZM79.2967 44.1205H76.185V49.6602H79.2967V44.1205ZM62.6491 44.1205H59.5374V49.6602H62.6491V44.1205ZM48.7146 67.2195C46.7629 67.5859 45.0179 68.5404 43.6693 69.8929C41.9206 71.6468 40.8384 74.0707 40.8384 76.7479C40.8384 79.4249 41.9205 81.8488 43.6693 83.6029C45.4183 85.3568 47.8349 86.4422 50.5043 86.4422V90.8112C46.6324 90.8112 43.1267 89.2369 40.5892 86.6922C38.7525 84.8499 37.4227 82.4985 36.8286 79.8673C35.9631 80.3242 35.1751 80.9089 34.4897 81.5962C32.741 83.3501 31.6588 85.774 31.6588 88.4512C31.6588 89.595 31.8565 90.6922 32.2191 91.711C33.813 91.0797 35.5496 90.7328 37.3671 90.7328V95.1018C34.6979 95.1018 32.2813 96.1869 30.5322 97.9412C28.7835 99.695 27.7012 102.119 27.7012 104.796C27.7012 107.473 28.7833 109.897 30.5322 111.651C32.1477 113.271 34.3331 114.321 36.761 114.472C37.3883 111.971 38.6832 109.736 40.4448 107.969C42.9823 105.424 46.488 103.849 50.3599 103.849V108.218C47.6906 108.218 45.2741 109.304 43.5249 111.058C41.7762 112.812 40.694 115.236 40.694 117.913C40.694 120.59 41.7761 123.014 43.5249 124.768C45.2739 126.522 47.6905 127.607 50.3599 127.607C53.029 127.607 55.4459 126.522 57.1949 124.768C58.9436 123.014 60.0258 120.59 60.0258 117.913V87.8778C59.2229 87.3398 58.4725 86.7333 57.7831 86.0675C54.8208 83.2061 52.9884 79.2517 52.9884 74.8839V72.0904C51.9476 71.8664 51.016 71.3419 50.2891 70.6131C49.4065 69.7278 48.8244 68.5393 48.7144 67.2201L48.7146 67.2195ZM54.1266 67.8416H55.1666H84.3567C84.6497 67.8416 84.9183 67.7194 85.1139 67.5232C85.3096 67.327 85.4314 67.0578 85.4314 66.7638V62.0045H53.0521V66.7638C53.0521 67.0577 53.1738 67.327 53.3695 67.5232C53.5651 67.7194 53.8334 67.8416 54.1267 67.8416H54.1266ZM85.4949 72.0898V74.8834C85.4949 79.2512 83.6625 83.2055 80.7002 86.0669C80.0628 86.6826 79.373 87.2474 78.6381 87.7542V117.912C78.6381 120.589 79.7202 123.013 81.4691 124.767C83.218 126.521 85.6346 127.607 88.304 127.607C90.9731 127.607 93.39 126.521 95.139 124.767C96.8877 123.013 97.9699 120.589 97.9699 117.912C97.9699 115.235 96.8878 112.811 95.139 111.057C93.3899 109.303 90.9734 108.218 88.304 108.218V103.849C92.1759 103.849 95.6816 105.423 98.2191 107.968C99.9807 109.735 101.276 111.97 101.903 114.471C104.331 114.321 106.516 113.271 108.132 111.651C109.88 109.897 110.963 107.473 110.963 104.796C110.963 102.119 109.881 99.6946 108.132 97.9406C106.383 96.1864 103.966 95.1013 101.297 95.1013V90.7322C103.114 90.7322 104.851 91.0792 106.445 91.7104C106.807 90.6916 107.005 89.5944 107.005 88.4507C107.005 85.7736 105.923 83.3496 104.174 81.5957C103.489 80.9084 102.701 80.3236 101.835 79.8668C101.241 82.498 99.9116 84.8493 98.0747 86.6916C95.5372 89.2364 92.0313 90.8107 88.1596 90.8107V86.4416C90.8288 86.4416 93.2456 85.3563 94.9946 83.6024C96.7433 81.8483 97.8255 79.4243 97.8255 76.7474C97.8255 74.0703 96.7434 71.6463 94.9946 69.8924C93.6053 68.499 91.7948 67.5277 89.7712 67.1871C89.6683 68.519 89.0837 69.7197 88.1942 70.6119C87.4676 71.3407 86.5355 71.8651 85.4949 72.0892V72.0898ZM81.1386 72.2107H57.3449V74.8834C57.3449 78.0236 58.6635 80.8677 60.7954 82.9268C62.9491 85.0071 65.9351 86.2943 69.2418 86.2943C72.5484 86.2943 75.5344 85.0071 77.6882 82.9268C79.8199 80.8677 81.1387 78.0236 81.1387 74.8834V72.2107H81.1386Z" fill="#D3A475"/>
<path d="M132.782 93.7178C131.839 92.7722 130.536 92.1869 129.096 92.1869C127.657 92.1869 126.354 92.7722 125.411 93.7178C124.468 94.6635 123.884 95.9706 123.884 97.4143C123.884 98.8579 124.468 100.165 125.411 101.111C126.354 102.056 127.657 102.642 129.096 102.642C130.536 102.642 131.839 102.056 132.782 101.111C133.725 100.165 134.309 98.8579 134.309 97.4143C134.309 95.9706 133.725 94.6635 132.782 93.7178ZM132.782 61.7293C131.839 60.7836 130.536 60.1983 129.096 60.1983C127.657 60.1983 126.354 60.7836 125.411 61.7293C124.468 62.6749 123.884 63.9821 123.884 65.4257C123.884 66.8693 124.468 68.1765 125.411 69.1221C126.354 70.0678 127.657 70.6531 129.096 70.6531C130.536 70.6531 131.839 70.0678 132.782 69.1221C133.725 68.1765 134.309 66.8693 134.309 65.4257C134.309 63.9821 133.725 62.6749 132.782 61.7293ZM100.439 69.9513H109.151L114.052 63.4366H119.734C120.124 61.5849 121.045 59.9297 122.331 58.64C124.062 56.9035 126.455 55.8291 129.097 55.8291C131.739 55.8291 134.131 56.9034 135.862 58.64C137.594 60.3765 138.665 62.776 138.665 65.4256C138.665 68.0753 137.594 70.4746 135.862 72.2111C134.131 73.9476 131.738 75.022 129.097 75.022C126.455 75.022 124.062 73.9478 122.331 72.2111C121.136 71.013 120.256 69.4994 119.825 67.8056H116.214L111.313 74.3202H101.974C101.704 72.7607 101.177 71.2891 100.439 69.9511V69.9513ZM129.097 134.631C130.536 134.631 131.839 134.046 132.782 133.1C133.725 132.154 134.309 130.847 134.309 129.404C134.309 127.96 133.725 126.653 132.782 125.707C131.839 124.761 130.536 124.176 129.097 124.176C127.657 124.176 126.354 124.761 125.411 125.707C124.468 126.653 123.884 127.96 123.884 129.404C123.884 130.847 124.468 132.154 125.411 133.1C126.354 134.046 127.657 134.631 129.097 134.631ZM102.088 120.509H111.313L116.214 127.023H119.825C120.256 125.33 121.136 123.816 122.331 122.618C124.062 120.881 126.455 119.807 129.097 119.807C131.739 119.807 134.131 120.881 135.862 122.618C137.594 124.354 138.665 126.754 138.665 129.403C138.665 132.053 137.594 134.452 135.862 136.189C134.131 137.925 131.738 139 129.097 139C126.455 139 124.062 137.926 122.331 136.189C121.045 134.899 120.124 133.244 119.734 131.392H114.052L109.151 124.878H100.488C101.248 123.543 101.797 122.071 102.088 120.509L102.088 120.509ZM129.097 87.8178C131.739 87.8178 134.131 88.8921 135.862 90.6287C137.594 92.3652 138.665 94.7646 138.665 97.4143C138.665 100.064 137.594 102.463 135.862 104.2C134.131 105.936 131.738 107.011 129.097 107.011C126.455 107.011 124.062 105.936 122.331 104.2C121.09 102.956 120.189 101.372 119.777 99.5987H114.331C113.685 97.9707 112.745 96.4923 111.576 95.2297H119.777C120.189 93.4568 121.09 91.8726 122.331 90.6286C124.062 88.8921 126.455 87.8177 129.097 87.8177V87.8178Z" fill="#D3A475"/>
<path d="M5.8828 93.7178C6.82569 92.7722 8.129 92.1869 9.56841 92.1869C11.0078 92.1869 12.3111 92.7722 13.254 93.7178C14.1969 94.6635 14.7805 95.9706 14.7805 97.4143C14.7805 98.8579 14.1969 100.165 13.254 101.111C12.3111 102.056 11.0078 102.642 9.56841 102.642C8.129 102.642 6.82569 102.056 5.8828 101.111C4.9399 100.165 4.3563 98.8579 4.3563 97.4143C4.3563 95.9706 4.9399 94.6635 5.8828 93.7178ZM5.8828 61.7293C6.82569 60.7836 8.129 60.1983 9.56841 60.1983C11.0078 60.1983 12.3111 60.7836 13.254 61.7293C14.1969 62.6749 14.7805 63.9821 14.7805 65.4257C14.7805 66.8693 14.1969 68.1765 13.254 69.1221C12.3111 70.0678 11.0078 70.6531 9.56841 70.6531C8.129 70.6531 6.82569 70.0678 5.8828 69.1221C4.9399 68.1765 4.3563 66.8693 4.3563 65.4257C4.3563 63.9821 4.9399 62.6749 5.8828 61.7293ZM40.1799 69.9513H29.5141L24.6129 63.4366H18.9308C18.5414 61.5849 17.62 59.9297 16.3341 58.64C14.6027 56.9035 12.2103 55.8291 9.56841 55.8291C6.9264 55.8291 4.53412 56.9034 2.8027 58.64C1.07127 60.3765 0 62.776 0 65.4256C0 68.0753 1.07113 70.4746 2.8027 72.2111C4.53412 73.9476 6.92654 75.022 9.56841 75.022C12.2104 75.022 14.6027 73.9478 16.3341 72.2111C17.5287 71.013 18.4091 69.4994 18.84 67.8056H22.4512L27.3523 74.3202H40.1799V69.9511V69.9513ZM9.56841 134.631C8.129 134.631 6.82569 134.046 5.8828 133.1C4.9399 132.154 4.3563 130.847 4.3563 129.404C4.3563 127.96 4.9399 126.653 5.8828 125.707C6.82569 124.761 8.129 124.176 9.56841 124.176C11.0078 124.176 12.3111 124.761 13.254 125.707C14.1969 126.653 14.7805 127.96 14.7805 129.404C14.7805 130.847 14.1969 132.154 13.254 133.1C12.3111 134.046 11.0078 134.631 9.56841 134.631ZM40.1799 120.509H27.3523L22.4512 127.023H18.84C18.4091 125.33 17.5287 123.816 16.3341 122.618C14.6027 120.881 12.2103 119.807 9.56841 119.807C6.9264 119.807 4.53412 120.881 2.8027 122.618C1.07127 124.354 0 126.754 0 129.403C0 132.053 1.07113 134.452 2.8027 136.189C4.53412 137.925 6.92654 139 9.56841 139C12.2104 139 14.6027 137.926 16.3341 136.189C17.62 134.899 18.5414 133.244 18.9308 131.392H24.6129L29.5141 124.878H40.1799V120.509V120.509ZM9.56841 87.8178C6.9264 87.8178 4.53412 88.8921 2.8027 90.6287C1.07127 92.3652 0 94.7646 0 97.4143C0 100.064 1.07113 102.463 2.8027 104.2C4.53412 105.936 6.92654 107.011 9.56841 107.011C12.2104 107.011 14.6027 105.936 16.3341 104.2C17.5746 102.956 18.476 101.372 18.8875 99.5987H27.5386V95.2297H18.8875C18.476 93.4568 17.5745 91.8726 16.3341 90.6286C14.6027 88.8921 12.2103 87.8177 9.56841 87.8177V87.8178Z" fill="#D3A475"/>
<path d="M67.0829 2.18461C67.0829 0.978059 68.0581 0 69.2611 0C70.4641 0 71.4393 0.978059 71.4393 2.18461V9.57688C71.4393 10.7834 70.4641 11.7615 69.2611 11.7615C68.0581 11.7615 67.0829 10.7834 67.0829 9.57688V2.18461Z" fill="#D3A475"/>
<path d="M29.3926 44.3548C28.1896 44.3548 27.2144 43.3768 27.2144 42.1702C27.2144 40.9637 28.1896 39.9856 29.3926 39.9856H36.7632C37.9663 39.9856 38.9415 40.9637 38.9415 42.1702C38.9415 43.3768 37.9663 44.3548 36.7632 44.3548H29.3926Z" fill="#D3A475"/>
<path d="M95.9128 12.3512C96.7633 11.4982 98.1424 11.4982 98.9929 12.3512C99.8434 13.2041 99.8434 14.5873 98.9929 15.4403L93.7809 20.6675C92.9305 21.5205 91.5513 21.5205 90.7008 20.6675C89.8504 19.8146 89.8504 18.4314 90.7008 17.5784L95.9128 12.3512Z" fill="#D3A475"/>
<path d="M109.13 39.9856C110.333 39.9856 111.308 40.9636 111.308 42.1702C111.308 43.3767 110.333 44.3548 109.13 44.3548H101.759C100.556 44.3548 99.5811 43.3767 99.5811 42.1702C99.5811 40.9636 100.556 39.9856 101.759 39.9856H109.13Z" fill="#D3A475"/>
<path d="M39.5295 15.4408C38.679 14.5878 38.679 13.2046 39.5295 12.3516C40.3799 11.4987 41.7591 11.4987 42.6096 12.3516L47.8215 17.5789C48.672 18.4319 48.672 19.8151 47.8215 20.668C46.9711 21.521 45.5919 21.521 44.7414 20.668L39.5295 15.4408Z" fill="#D3A475"/>
</svg>
