<svg width="62" height="57" viewBox="0 0 62 57" fill="none" xmlns="http://www.w3.org/2000/svg">
<path d="M61.9816 33.3582C61.9612 33.0579 61.8033 32.7845 61.5536 32.6171C59.2259 31.0598 56.274 30.7624 53.5865 31.7375C53.0767 28.9455 51.3444 26.5114 48.8569 25.2875C48.5887 25.1546 48.271 25.1546 48.0019 25.2875C46.699 25.9292 45.6146 26.9143 44.7894 28.0961H42.5208C42.0716 25.8909 40.1189 24.2258 37.7818 24.223C37.7808 24.223 37.7799 24.222 37.7789 24.222H25.1853V22.2159C29.0022 21.7378 31.9678 18.4795 31.9678 14.5349C31.9678 10.7984 28.9237 0 24.2197 0C19.5156 0 16.4715 10.7975 16.4715 14.5349C16.4715 18.4766 19.4343 21.7359 23.2483 22.215V24.222H10.65C10.6471 24.222 10.6443 24.2239 10.641 24.2239C8.31093 24.2324 6.36207 25.8947 5.91375 28.0961H0.968521C0.432713 28.0961 0 28.5288 0 29.0646V37.7813C0 43.7367 3.60594 48.8611 8.74554 51.1023C8.13832 51.6348 7.74628 52.408 7.74628 53.2777C7.74628 54.8794 9.05009 56.1832 10.6518 56.1832H37.7789C39.3812 56.1832 40.6845 54.8794 40.6845 53.2777C40.6845 52.4089 40.2944 51.6371 39.6881 51.1042C40.3814 50.8029 41.0529 50.4497 41.6956 50.0396C42.2248 49.9488 42.7445 49.8112 43.2571 49.6282C43.757 52.4439 45.4907 54.8487 48.0009 56.0863C48.1366 56.152 48.2828 56.1861 48.4289 56.1861C48.575 56.1861 48.7226 56.153 48.8559 56.0863C51.3695 54.8496 53.1032 52.4439 53.6021 49.6273C54.6198 49.9905 55.6772 50.19 56.7294 50.19C58.4404 50.19 60.1249 49.7105 61.5503 48.7576C61.8014 48.5902 61.9594 48.3168 61.9787 48.0165C62.1608 45.2524 60.9199 42.5345 58.7573 40.6973C60.9502 38.8572 62.1665 36.1531 61.9816 33.3582ZM48.4298 27.2562C50.5045 28.4844 51.8197 30.8494 51.8197 33.4201C51.8197 35.0734 51.2947 36.6189 50.339 37.8674C49.7975 37.5014 49.1458 37.2871 48.4445 37.2871C47.7366 37.2871 47.0787 37.507 46.5344 37.8802C45.5806 36.6307 45.04 35.0531 45.04 33.4201C45.04 30.8503 46.3552 28.4834 48.4298 27.2562ZM49.8973 40.676C49.8973 41.4771 49.2456 42.1297 48.4445 42.1297C47.6434 42.1297 46.9917 41.4771 46.9917 40.676C46.9917 39.8763 47.6434 39.2242 48.4445 39.2242C49.2456 39.2242 49.8973 39.8763 49.8973 40.676ZM18.4085 14.5349C18.4085 10.78 21.4489 1.93704 24.2197 1.93704C26.9909 1.93704 30.0308 10.78 30.0308 14.5349C30.0308 17.4093 27.9311 19.797 25.1853 20.2586V16.472C25.1853 15.9361 24.7526 15.5034 24.2168 15.5034C23.6815 15.5034 23.2483 15.9361 23.2483 16.472V20.2576C20.5054 19.7937 18.4085 17.4074 18.4085 14.5349ZM10.6585 26.1591H37.7771C39.0383 26.1591 40.1024 26.9715 40.5034 28.0961H7.93213C8.33316 26.9715 9.39768 26.1591 10.6585 26.1591ZM1.93704 30.0331H43.7528C43.5409 30.5794 43.3811 31.1497 43.2746 31.7366C41.0179 30.9175 38.5782 31.0017 36.4747 31.9721H1.93704V30.0331ZM44.578 38.4633C42.9412 38.3866 41.2766 38.7602 39.786 39.5476C37.9312 38.2046 36.8185 36.1446 36.8 33.9711C38.6907 32.9018 41.0302 32.8342 43.1205 33.7696C43.1834 35.4537 43.6918 37.0819 44.578 38.4633ZM1.93704 37.7813V33.9091H34.8833C34.8814 36.5059 36.0571 38.9783 38.1005 40.6973C35.9389 42.5336 34.6975 45.2524 34.8805 48.0175C34.9008 48.3178 35.0588 48.5911 35.3085 48.7585C36.0145 49.23 36.7825 49.5847 37.5874 49.823C36.4028 50.1843 35.1633 50.373 33.902 50.373H14.5278C7.58549 50.3721 1.93704 44.7236 1.93704 37.7813ZM37.7789 54.2462H10.6518C10.117 54.2462 9.68332 53.812 9.68332 53.2777C9.68332 52.7428 10.117 52.3091 10.6518 52.3091H37.7789C38.3138 52.3091 38.7475 52.7428 38.7475 53.2777C38.7475 53.812 38.3138 54.2462 37.7789 54.2462ZM36.8 47.4027C36.8251 44.9927 38.2159 42.6703 40.4414 41.3858C41.8654 40.5649 43.5106 40.2433 45.0769 40.4514C45.0722 40.527 45.0547 40.5999 45.0547 40.676C45.0547 42.0096 45.8364 43.1555 46.9577 43.7088C46.3542 45.1701 45.2552 46.4351 43.8322 47.257C41.6076 48.5405 38.8979 48.5831 36.8 47.4027ZM48.4298 54.1171C46.5566 53.0142 45.3309 51.0219 45.0944 48.7458C46.5221 47.8482 47.6774 46.5931 48.4298 45.136C49.1837 46.5931 50.339 47.8472 51.7658 48.7429C51.5303 51.0219 50.304 53.0142 48.4298 54.1171ZM60.0611 47.4027C57.9614 48.5859 55.254 48.5415 53.0284 47.2561C51.6106 46.438 50.5121 45.1776 49.9077 43.722C51.0432 43.1739 51.8334 42.0205 51.8334 40.677C51.8334 40.5975 51.8149 40.5242 51.8102 40.4457C53.3751 40.2376 54.9811 40.5559 56.4183 41.3873C58.6438 42.6703 60.0346 44.9918 60.0611 47.4027ZM57.077 39.5467C55.5708 38.7489 53.9312 38.3739 52.2954 38.4543C53.1826 37.079 53.6792 35.4721 53.7402 33.7696C55.8304 32.8342 58.1713 32.9018 60.062 33.9711C60.0445 36.1446 58.9318 38.2036 57.077 39.5467Z" fill="#D3A475"/>
</svg>
