<svg width="62" height="62" viewBox="0 0 62 62" fill="none" xmlns="http://www.w3.org/2000/svg">
<path d="M1.52237 38.6379C1.86238 38.8735 2.2211 39.0809 2.59494 39.2579C3.04236 39.4863 3.79048 39.8686 3.84318 40.1373C3.90894 40.4901 3.86681 40.8545 3.72228 41.183C3.56832 41.5136 3.40609 41.7978 3.26763 42.0437C2.8884 42.7112 2.25602 43.8303 3.21079 44.6115C3.43399 44.8182 3.81941 45.1168 4.17177 45.3865C3.91284 45.8386 3.7955 46.358 3.83491 46.8775C3.88919 47.2842 4.10859 47.6504 4.44146 47.8902C4.67396 48.0555 4.92298 48.2002 5.16478 48.3397C5.77236 48.6858 6.01002 48.847 6.09476 49.1663C6.15033 49.5867 6.1115 50.0142 5.98109 50.4177C5.92013 50.6863 5.86123 50.9539 5.823 51.2288C5.72058 52.1713 5.84019 53.1246 6.17225 54.0125C6.636 55.658 8.12398 56.8045 9.83326 56.8335C10.1169 56.8324 10.3998 56.8026 10.6775 56.7446C13.6294 56.045 16.5383 55.1745 19.3893 54.1376C21.7163 55.5036 23.1877 59.6575 23.5711 61.2168C23.686 61.6773 24.0998 62.0003 24.5744 62L50.5105 61.9277C50.8392 61.927 51.1479 61.7701 51.3421 61.5049C51.5363 61.2397 51.5928 60.8979 51.4942 60.5844C51.2386 59.8843 50.8863 59.2234 50.4474 58.6211C50.1992 58.2647 49.9755 57.8918 49.7779 57.5051C49.3106 56.5574 48.9205 55.5736 48.6112 54.5633C48.0218 52.5662 47.6127 50.5204 47.3888 48.4502C47.0261 45.3588 47.4948 42.2266 48.7466 39.3768C49.5105 37.7962 50.4521 36.308 51.5531 34.9408C52.1731 34.1038 52.8168 33.2368 53.3944 32.3265C54.3876 30.7837 55.1076 29.0814 55.523 27.2943C55.6419 26.7426 55.2962 26.1976 54.7465 26.07C54.1967 25.9425 53.6464 26.2796 53.5102 26.8272C53.1469 28.387 52.5177 29.8726 51.6502 31.2188C51.1139 32.0671 50.4939 32.9021 49.8936 33.7101C48.6979 35.202 47.6776 36.8264 46.8526 38.5511C45.4532 41.7383 44.9302 45.2413 45.3377 48.6982C45.576 50.8937 46.0121 53.0632 46.6407 55.1802C46.9802 56.2918 47.409 57.3741 47.9231 58.4165C48.1586 58.8822 48.4262 59.3311 48.7239 59.7598L48.7931 59.8631L25.3556 59.9334C24.6688 57.4823 23.4235 55.2237 21.7173 53.3347L22.6473 53.0113C23.3417 52.7684 23.8656 52.5855 24.1363 52.4946C28.5609 51.0841 30.7743 49.0692 30.7133 46.5014C30.7105 46.2271 30.5967 45.9657 30.3979 45.7767C30.1992 45.5877 29.9324 45.4872 29.6583 45.4981C29.088 45.5116 28.6365 45.9848 28.6498 46.5551C28.6746 47.6122 27.8035 49.1601 23.5081 50.5282C23.227 50.6181 22.6814 50.8072 21.9674 51.0583C21.1997 51.3259 20.2263 51.6669 19.1516 52.0317H19.1444C16.2384 53.0972 13.2734 53.9943 10.2642 54.7183C9.3017 54.8992 8.36612 54.2947 8.13554 53.3429C7.91331 52.7597 7.82605 52.1337 7.88031 51.5119C7.91028 51.3053 7.95884 51.0883 8.00638 50.8775C8.22628 50.1562 8.26181 49.3913 8.10971 48.6528C7.80962 47.7065 7.11368 46.9371 6.20222 46.5438L5.98006 46.4167C6.09144 46.1904 6.22505 45.9758 6.37892 45.776C6.55204 45.5561 6.62856 45.2754 6.59098 44.9981C6.55339 44.7207 6.4049 44.4705 6.17949 44.3046C5.93253 44.1227 5.35284 43.6846 4.91885 43.3395C4.96845 43.2496 5.02218 43.1504 5.07488 43.0615C5.23711 42.7763 5.42311 42.4416 5.6029 42.0623C5.93037 41.3385 6.02636 40.5312 5.87776 39.7508C5.6308 38.4902 4.42286 37.8723 3.54145 37.4217C3.2445 37.2805 2.95972 37.1149 2.69001 36.9268C2.46857 36.7785 2.26106 36.6104 2.07002 36.4246C2.07002 36.2675 2.23845 35.8883 3.0248 34.9304C4.87382 32.5481 6.45889 29.9721 7.75218 27.2478C7.99496 26.8207 8.13174 26.3416 8.15104 25.8508C8.04282 24.8111 7.49004 23.869 6.63518 23.2675C6.21669 22.8831 5.82093 22.5214 5.7765 22.2166C5.78597 21.9634 5.84274 21.7142 5.94389 21.4819C6.11232 21.0397 6.30762 20.6057 6.50188 20.1707C6.93761 19.2732 7.28373 18.3348 7.53519 17.3694C7.77197 16.2113 8.0826 15.0696 8.46516 13.9512C9.27961 11.7029 10.5408 9.6428 12.1727 7.89496C14.1484 5.80251 17.2586 4.32282 21.4332 3.4941C24.6264 2.79305 27.8665 2.32613 31.1277 2.09707C32.225 2.04052 33.3249 2.06401 34.4188 2.16733C34.7872 2.20167 35.1459 2.03684 35.3599 1.73494C35.5738 1.43304 35.6105 1.03993 35.456 0.703696C35.3015 0.367462 34.9794 0.139184 34.611 0.104852C33.4169 -0.00455325 32.2166 -0.0283802 31.0192 0.0335537C27.6572 0.266828 24.3169 0.746189 21.025 1.46779C16.3658 2.39776 12.9797 4.03142 10.6692 6.47416C8.84472 8.42456 7.43446 10.7245 6.52358 13.2351C6.10483 14.4569 5.76486 15.7042 5.50577 16.9695C5.28492 17.7809 4.98808 18.5697 4.61919 19.3254C4.41253 19.7956 4.19967 20.2657 4.01367 20.7545C3.77851 21.3008 3.68196 21.8968 3.73261 22.4894C3.94636 23.4118 4.48247 24.2274 5.24434 24.7895C5.75066 25.2535 6.08442 25.58 6.08856 25.8652C6.05095 26.0221 5.99183 26.173 5.91289 26.3137C4.67576 28.9193 3.15964 31.3829 1.39114 33.6615C0.643023 34.5739 -0.142291 35.6372 0.0220054 36.7015C0.242043 37.5222 0.782682 38.2199 1.52237 38.6379Z" fill="#D3A475"/>
<path d="M12.338 15.3864C12.9603 13.6612 13.9247 12.0796 15.1734 10.7365C16.5508 9.27848 18.9326 8.20488 22.2537 7.54459C22.8135 7.4336 23.1774 6.88978 23.0664 6.32994C22.9554 5.7701 22.4115 5.40625 21.8517 5.51724C18.1018 6.26329 15.3501 7.54046 13.672 9.31362C12.2301 10.8612 11.1166 12.6848 10.3985 14.6744C10.0507 15.7067 9.76734 16.7596 9.55017 17.827L11.5682 18.2745C11.7663 17.2971 12.0234 16.3326 12.338 15.3864Z" fill="#D3A475"/>
<path d="M33.9558 5.788L33.3358 8.87966C32.7382 9.07592 32.1564 9.31773 31.5958 9.60297L28.9722 7.84635C28.1524 7.30951 27.0684 7.42214 26.3765 8.11604L24.6612 9.8303C23.9537 10.5249 23.8392 11.6242 24.3884 12.4497L26.1368 15.0609C25.8515 15.6216 25.6097 16.2033 25.4135 16.801L22.3259 17.421C21.3612 17.6159 20.6677 18.4641 20.6685 19.4483V21.8869C20.6678 22.8695 21.3591 23.7167 22.3218 23.9133L25.4135 24.5332C25.6097 25.1309 25.8515 25.7126 26.1368 26.2733L24.3802 28.8969C23.8433 29.7166 23.956 30.8007 24.6499 31.4926L26.3651 33.2079C27.061 33.9122 28.1579 34.026 28.9836 33.4796L31.5947 31.7313C32.1554 32.0165 32.7371 32.2583 33.3348 32.4546L33.9548 35.5421C34.1492 36.5073 34.9976 37.2012 35.9821 37.2006H38.4207C39.4033 37.2012 40.2505 36.51 40.4471 35.5473L41.0671 32.4556C41.6647 32.2593 42.2465 32.0175 42.8071 31.7323L45.4307 33.4889C46.2505 34.0258 47.3345 33.9131 48.0264 33.2192L49.7406 31.505C50.4482 30.8103 50.5627 29.7111 50.0134 28.8855L48.2651 26.2744C48.5503 25.7137 48.7921 25.1319 48.9884 24.5343L52.0759 23.9143C52.6892 23.7903 53.2128 23.3941 53.4988 22.8376L55.056 23.8812C55.3564 24.0705 55.7042 24.1711 56.0593 24.1716C56.5547 24.1717 57.0296 23.9742 57.3789 23.6229L58.7532 22.2486C59.3781 21.6204 59.4785 20.6407 58.9939 19.8989L57.6609 17.9046C57.8543 17.516 58.0214 17.1148 58.1611 16.7039L60.4994 16.2378C61.3743 16.066 62.0042 15.2974 62.0008 14.4058V12.4632C62.004 11.5749 61.3786 10.8084 60.5077 10.6332L58.159 10.1651C58.0204 9.75403 57.854 9.35286 57.6609 8.96439L59.0146 6.94634C59.4836 6.20722 59.3762 5.24147 58.7563 4.62346L57.382 3.24916C56.754 2.62381 55.774 2.52339 55.0322 3.0084L53.0379 4.34137C52.6493 4.14802 52.2482 3.98094 51.8372 3.84125L51.3702 1.50287C51.1984 0.62836 50.4304 -0.00137625 49.5391 0.00147657H47.5965C46.7082 -0.00165804 45.9417 0.623764 45.7665 1.49461L45.2984 3.84331C44.8873 3.98292 44.4861 4.15036 44.0977 4.34447L42.0797 2.99084C41.3404 2.52259 40.3752 2.62993 39.7568 3.24916L38.8268 4.17914C38.6932 4.15127 38.5572 4.13639 38.4207 4.13471H35.9821C34.9996 4.13402 34.1523 4.82527 33.9558 5.788ZM49.753 9.83857L49.2705 9.35601C51.0615 9.59577 52.4861 10.9768 52.7813 12.7596C53.0765 14.5423 52.1731 16.3088 50.5549 17.1131L48.9863 16.8031C48.7901 16.2054 48.5483 15.6237 48.263 15.063L50.0196 12.4394C50.5584 11.6199 50.447 10.5346 49.753 9.84167V9.83857ZM41.1043 4.82082L43.4664 6.40798C43.7976 6.63011 44.2272 6.64178 44.57 6.43795C45.1615 6.08983 45.7976 5.82389 46.4609 5.64747C46.8399 5.54512 47.1282 5.23683 47.2049 4.85182L47.7598 2.06809H49.3759L49.9308 4.85802C50.0075 5.24303 50.2957 5.55132 50.6748 5.65367C51.338 5.83009 51.9742 6.09603 52.5657 6.44415C52.9097 6.64612 53.3392 6.63205 53.6693 6.40798L56.0314 4.82289L57.1784 5.96986L55.5943 8.33304C55.3722 8.66429 55.3605 9.09379 55.5644 9.43661C55.9125 10.0281 56.1784 10.6643 56.3548 11.3276C56.4572 11.7066 56.7655 11.9948 57.1505 12.0715L59.9404 12.6264V14.2425L57.1557 14.7974C56.7706 14.8741 56.4624 15.1624 56.36 15.5414C56.1836 16.2047 55.9177 16.8408 55.5695 17.4323C55.3657 17.7752 55.3774 18.2047 55.5995 18.5359L57.1846 20.8981L56.0376 22.045L53.7344 20.5044V19.4483C53.7345 18.8433 53.4703 18.2685 53.0111 17.8746C54.8302 16.1221 55.401 13.4395 54.4529 11.0982C53.5047 8.75695 51.2281 7.22745 48.7022 7.23463C48.0774 7.23856 47.4571 7.34037 46.8639 7.53636C46.359 7.4628 45.8447 7.57596 45.4173 7.85462L42.8082 9.60297C42.2475 9.31773 41.6658 9.07592 41.0681 8.87966L40.4481 5.79213C40.4298 5.70934 40.406 5.62787 40.3768 5.54827L41.1043 4.82082ZM35.2382 9.89746L35.9821 6.20132H38.4207L39.1637 9.90057C39.2409 10.2845 39.5286 10.5918 39.9066 10.6941C40.7604 10.9243 41.5805 11.2647 42.3463 11.7068C42.6875 11.9047 43.1117 11.8911 43.4395 11.6717L46.5663 9.58024L48.2981 11.3028L46.2005 14.4327C45.9811 14.7605 45.9675 15.1847 46.1654 15.5259C46.6075 16.2917 46.9479 17.1118 47.178 17.9655C47.2804 18.3436 47.5877 18.6312 47.9716 18.7085L51.6678 19.4473V21.8869L47.9685 22.6299C47.5846 22.7071 47.2773 22.9948 47.1749 23.3728C46.9448 24.2266 46.6044 25.0467 46.1623 25.8125C45.9644 26.1537 45.978 26.5779 46.1974 26.9057L48.2888 30.0325L46.5663 31.7643L43.4364 29.6667C43.1086 29.4473 42.6844 29.4336 42.3432 29.6316C41.5774 30.0737 40.7573 30.4141 39.9035 30.6442C39.5255 30.7466 39.2378 31.0539 39.1606 31.4378L38.4207 35.1339H35.9821L35.2392 31.4347C35.1619 31.0508 34.8743 30.7435 34.4962 30.6411C33.6425 30.411 32.8224 30.0706 32.0566 29.6285C31.7154 29.4305 31.2912 29.4442 30.9634 29.6636L27.8366 31.755L26.1048 30.0325L28.2024 26.9026C28.4218 26.5748 28.4354 26.1506 28.2375 25.8094C27.7954 25.0436 27.455 24.2235 27.2249 23.3697C27.1225 22.9917 26.8152 22.704 26.4313 22.6268L22.7351 21.8869V19.4483L26.4344 18.7054C26.8183 18.6281 27.1256 18.3405 27.228 17.9624C27.4581 17.1087 27.7985 16.2886 28.2406 15.5228C28.4385 15.1816 28.4249 14.7574 28.2055 14.4296L26.1141 11.3028L27.8366 9.57094L30.9665 11.6686C31.2943 11.888 31.7185 11.9016 32.0597 11.7037C32.8255 11.2616 33.6456 10.9212 34.4993 10.691C34.8758 10.5873 35.1616 10.2803 35.2382 9.89746Z" fill="#D3A475"/>
<path d="M37.202 27.9009C41.1967 27.9009 44.4351 24.6625 44.4351 20.6677C44.4351 16.673 41.1967 13.4346 37.202 13.4346C33.2072 13.4346 29.9688 16.673 29.9688 20.6677C29.9734 24.6606 33.2091 27.8963 37.202 27.9009ZM37.202 15.5012C40.0554 15.5012 42.3685 17.8143 42.3685 20.6677C42.3685 23.5211 40.0554 25.8343 37.202 25.8343C34.3486 25.8343 32.0354 23.5211 32.0354 20.6677C32.0388 17.8157 34.35 15.5046 37.202 15.5012Z" fill="#D3A475"/>
<path d="M37.2012 21.7011C37.7718 21.7011 38.2345 21.2385 38.2345 20.6678C38.2345 20.0971 37.7718 19.6345 37.2012 19.6345C36.6305 19.6345 36.1678 20.0971 36.1678 20.6678C36.1678 21.2385 36.6305 21.7011 37.2012 21.7011Z" fill="#D3A475"/>
<path d="M9.30198 22.7343C9.87266 22.7343 10.3353 22.2717 10.3353 21.701C10.3353 21.1304 9.87266 20.6677 9.30198 20.6677C8.7313 20.6677 8.26868 21.1304 8.26868 21.701C8.26868 22.2717 8.7313 22.7343 9.30198 22.7343Z" fill="#D3A475"/>
</svg>
