<svg width="27" height="27" viewBox="0 0 27 27" fill="none" xmlns="http://www.w3.org/2000/svg">
<path d="M26.1162 7.93903C26.0548 6.54757 25.8298 5.59096 25.5075 4.76204C25.1749 3.88216 24.6634 3.0944 23.9931 2.43954C23.3383 1.77449 22.5453 1.25771 21.6756 0.93038C20.8419 0.608044 19.8903 0.383029 18.4988 0.321679C17.097 0.255133 16.6519 0.239746 13.0965 0.239746C9.54097 0.239746 9.09594 0.255133 7.69928 0.316483C6.30783 0.377833 5.35121 0.603048 4.52249 0.925184C3.64241 1.25771 2.85466 1.76929 2.1998 2.43954C1.53474 3.0944 1.01816 3.88735 0.690633 4.75704C0.368298 5.59096 0.143282 6.54238 0.0819328 7.93384C0.0153874 9.33568 0 9.78072 0 13.3362C0 16.8917 0.0153874 17.3367 0.076737 18.7334C0.138087 20.1248 0.363302 21.0815 0.685637 21.9104C1.01816 22.7902 1.53474 23.578 2.1998 24.2329C2.85466 24.8979 3.64761 25.4147 4.51729 25.742C5.35121 26.0644 6.30263 26.2894 7.69429 26.3507C9.09074 26.4123 9.53598 26.4275 13.0915 26.4275C16.6469 26.4275 17.092 26.4123 18.4886 26.3507C19.8801 26.2894 20.8367 26.0644 21.6654 25.742C23.4254 25.0616 24.8168 23.6701 25.4973 21.9104C25.8194 21.0765 26.0446 20.1248 26.106 18.7334C26.1673 17.3367 26.1827 16.8917 26.1827 13.3362C26.1827 9.78072 26.1775 9.33568 26.1162 7.93903ZM23.7579 18.6311C23.7016 19.91 23.4867 20.6006 23.3077 21.0611C22.8676 22.2019 21.9622 23.1074 20.8213 23.5474C20.3609 23.7265 19.6653 23.9413 18.3913 23.9975C17.01 24.059 16.5958 24.0742 13.1017 24.0742C9.60752 24.0742 9.18806 24.059 7.81179 23.9975C6.53284 23.9413 5.84221 23.7265 5.38178 23.5474C4.81405 23.3376 4.29727 23.0051 3.87782 22.5702C3.44298 22.1456 3.11045 21.634 2.90062 21.0663C2.72157 20.6058 2.50674 19.91 2.45059 18.6363C2.38904 17.255 2.37385 16.8405 2.37385 13.3464C2.37385 9.85226 2.38904 9.43281 2.45059 8.05673C2.50674 6.77778 2.72157 6.08715 2.90062 5.62673C3.11045 5.05879 3.44298 4.54222 3.88301 4.12256C4.30747 3.68772 4.81905 3.35519 5.38698 3.14556C5.8474 2.96651 6.54323 2.75169 7.81699 2.69533C9.19825 2.63398 9.61271 2.61859 13.1066 2.61859C16.606 2.61859 17.0202 2.63398 18.3965 2.69533C19.6755 2.75169 20.3661 2.96651 20.8265 3.14556C21.3942 3.35519 21.911 3.68772 22.3305 4.12256C22.7653 4.54721 23.0979 5.05879 23.3077 5.62673C23.4867 6.08715 23.7016 6.78278 23.7579 8.05673C23.8193 9.438 23.8346 9.85226 23.8346 13.3464C23.8346 16.8405 23.8193 17.2498 23.7579 18.6311Z" fill="white"/>
<path d="M13.0967 6.60889C9.38271 6.60889 6.36938 9.62201 6.36938 13.3362C6.36938 17.0503 9.38271 20.0634 13.0967 20.0634C16.8108 20.0634 19.8239 17.0503 19.8239 13.3362C19.8239 9.62201 16.8108 6.60889 13.0967 6.60889ZM13.0967 17.7C10.6872 17.7 8.73285 15.7458 8.73285 13.3362C8.73285 10.9265 10.6872 8.97235 13.0967 8.97235C15.5063 8.97235 17.4605 10.9265 17.4605 13.3362C17.4605 15.7458 15.5063 17.7 13.0967 17.7Z" fill="white"/>
<path d="M21.6603 6.34297C21.6603 7.21026 20.957 7.91348 20.0896 7.91348C19.2223 7.91348 18.519 7.21026 18.519 6.34297C18.519 5.47548 19.2223 4.77246 20.0896 4.77246C20.957 4.77246 21.6603 5.47548 21.6603 6.34297Z" fill="white"/>
</svg>
