<svg width="62" height="44" viewBox="0 0 62 44" fill="none" xmlns="http://www.w3.org/2000/svg">
<path d="M16.1178 18.5518C11.3078 17.1176 7.60101 20.5817 7.44656 20.7582C6.92971 21.0809 6.77222 21.7615 7.09491 22.2783C7.4176 22.7952 8.09815 22.9525 8.615 22.63C8.74146 22.551 8.85068 22.4473 8.9359 22.3249C10.705 20.7349 13.1409 20.1126 15.4559 20.6591C16.0351 20.848 16.6578 20.5317 16.8469 19.9525C16.8505 19.9417 16.8538 19.9308 16.857 19.9199C17.0285 19.3381 16.6984 18.7271 16.1178 18.5518Z" fill="#D3A475"/>
<path d="M29.7315 15.1208V15.0987C24.9215 13.6756 21.2147 17.1286 21.0602 17.3051C20.6185 17.7256 20.6012 18.4245 21.0216 18.8662C21.4421 19.3079 22.141 19.3253 22.5827 18.9048C24.3453 17.3027 26.7876 16.6786 29.1027 17.2389C29.6877 17.4126 30.3026 17.0793 30.4762 16.4943C30.6498 15.9093 30.3165 15.2944 29.7315 15.1208Z" fill="#D3A475"/>
<path d="M29.389 27.4436C29.3079 27.1733 29.1263 26.9443 28.8815 26.8037C28.6293 26.6533 28.3276 26.6096 28.0431 26.6824L14.4515 30.1244C13.8577 30.2611 13.4872 30.8532 13.6238 31.4469C13.6239 31.4473 13.6241 31.4478 13.6241 31.4483C14.3853 34.449 17.3088 36.4679 20.8832 36.4679C21.6686 36.4657 22.4505 36.3656 23.211 36.17C27.5577 35.0668 30.3267 31.1614 29.389 27.4436ZM22.6704 34.0629C22.0897 34.2093 21.4932 34.2834 20.8943 34.2835C19.0354 34.3643 17.265 33.4855 16.2056 31.9557L27.3591 29.1315C27.2598 31.2938 25.3733 33.3789 22.6704 34.0629Z" fill="#D3A475"/>
<path d="M61.2025 8.15056C61.2 8.14987 61.1977 8.14918 61.1952 8.14849L31.8056 0.0398708C31.2181 -0.121888 30.6108 0.223143 30.449 0.810604C30.4489 0.811156 30.4487 0.811569 30.4486 0.81212L29.9632 2.54417L0.827317 9.92467C0.241097 10.0762 -0.113449 10.672 0.0330029 11.2596L4.95334 30.7092C7.15204 39.4482 16.0188 44.7502 24.7578 42.5515C27.5761 41.8424 30.1541 40.3935 32.2248 38.3545C39.8819 43.1286 49.9595 40.7916 54.7337 33.1345C55.5642 31.8025 56.1985 30.3577 56.6168 28.8448L61.9564 9.51648C62.1255 8.93109 61.7879 8.31949 61.2025 8.15056ZM24.2706 40.3954C16.7126 42.319 9.0264 37.7516 7.10267 30.1936C7.09964 30.1816 7.09661 30.1696 7.09357 30.1576L2.43801 11.7891L29.897 4.84988L34.5526 23.2294C36.4505 30.8085 31.8483 38.4918 24.2706 40.3954ZM54.4987 28.2601C52.4154 35.7883 44.6238 40.2022 37.0958 38.119C35.9112 37.7912 34.7744 37.3103 33.7141 36.6886C34.7881 35.302 35.6334 33.7527 36.2184 32.0993L45.342 34.6256C45.4409 34.6391 45.541 34.6391 45.6399 34.6256C46.1496 34.6445 46.6057 34.3115 46.7431 33.8203C47.758 30.1355 45.0772 26.164 40.7526 24.9946C39.5434 24.6585 38.2784 24.5722 37.0348 24.7408C36.9577 24.0461 36.8361 23.357 36.6707 22.6778L34.8173 15.4518C35.9436 15.965 37.1651 16.2356 38.4028 16.2461C39.1483 16.2466 39.8905 16.1465 40.6092 15.9482C41.2033 15.7807 41.549 15.1633 41.3815 14.5692C41.2139 13.9751 40.5965 13.6294 40.0024 13.7969C37.9154 14.2887 35.7184 13.7833 34.0561 12.429L31.8828 3.86802L32.2799 2.42281L59.5404 9.95776L54.4987 28.2601ZM36.8473 29.9701C37.0513 28.9787 37.1622 27.9704 37.1782 26.9583C38.1823 26.7941 39.2101 26.8506 40.19 27.1238C42.8818 27.8629 44.7242 29.9811 44.7794 32.1544L36.8473 29.9701Z" fill="#D3A475"/>
<path d="M54.9401 18.331C54.7786 17.743 54.1711 17.3973 53.5831 17.5588C51.2545 18.0697 48.8243 17.3918 47.0962 15.7495C46.6636 15.32 45.9647 15.3224 45.5352 15.755C45.1056 16.1876 45.1081 16.8865 45.5407 17.3161C47.2891 18.9509 49.5693 19.899 51.9614 19.9859C52.7069 19.9867 53.4492 19.8864 54.1678 19.688C54.7558 19.5265 55.1015 18.9189 54.9401 18.331Z" fill="#D3A475"/>
</svg>
