<svg width="141" height="141" viewBox="0 0 141 141" fill="none" xmlns="http://www.w3.org/2000/svg">
<path fill-rule="evenodd" clip-rule="evenodd" d="M70.4016 70.5H70.4482H137.132C142.99 92.3622 131.078 114.617 137.129 137.22L137.132 137.231L70.4009 70.5H70.4016V70.5Z" stroke="#D3A475" stroke-width="4" stroke-miterlimit="22.9256" stroke-linejoin="round"/>
<path fill-rule="evenodd" clip-rule="evenodd" d="M137.133 137.231C115.151 131.341 93.0266 143.294 70.4019 137.231V70.5L137.133 137.231Z" stroke="#D3A475" stroke-width="4" stroke-miterlimit="22.9256" stroke-linejoin="round"/>
<path fill-rule="evenodd" clip-rule="evenodd" d="M137.133 3.76845C115.151 9.65846 93.0266 -2.29393 70.4019 3.76845V70.4998L137.133 3.76845Z" stroke="#D3A475" stroke-width="4" stroke-miterlimit="22.9256" stroke-linejoin="round"/>
<path fill-rule="evenodd" clip-rule="evenodd" d="M137.133 3.76855L70.4019 70.4999H70.4484H137.132C142.982 48.6703 131.115 26.4486 137.104 3.8797C137.113 3.84262 137.122 3.80564 137.132 3.7694L137.133 3.76855Z" stroke="#D3A475" stroke-width="4" stroke-miterlimit="22.9256" stroke-linejoin="round"/>
<path fill-rule="evenodd" clip-rule="evenodd" d="M70.402 70.5H3.67062C-2.18832 92.3657 9.72783 114.624 3.67062 137.231L70.402 70.5V70.5Z" stroke="#D3A475" stroke-width="4" stroke-miterlimit="22.9256" stroke-linejoin="round"/>
<path fill-rule="evenodd" clip-rule="evenodd" d="M3.67188 137.231L3.68736 137.228C25.6643 131.347 47.7843 143.293 70.4032 137.231V70.5475V70.501L3.67188 137.232V137.231V137.231Z" stroke="#D3A475" stroke-width="4" stroke-miterlimit="22.9256" stroke-linejoin="round"/>
<path fill-rule="evenodd" clip-rule="evenodd" d="M70.402 70.4999H3.67062C-2.18832 48.6341 9.72783 26.3763 3.67062 3.76855L70.402 70.4999Z" stroke="#D3A475" stroke-width="4" stroke-miterlimit="22.9256" stroke-linejoin="round"/>
<path fill-rule="evenodd" clip-rule="evenodd" d="M3.67188 3.76871C3.7098 3.77904 3.74857 3.78768 3.7865 3.798C25.7307 9.61564 47.8179 -2.28333 70.4033 3.76871V70.4527V70.4993L3.67197 3.76796L3.67188 3.76871V3.76871Z" stroke="#D3A475" stroke-width="4" stroke-miterlimit="22.9256" stroke-linejoin="round"/>
<path fill-rule="evenodd" clip-rule="evenodd" d="M70.3336 70.5L70.3678 70.4658L70.3335 70.4316H70.402L103.699 37.1343C117.524 45.1155 122.705 62.1312 136.95 70.4316H137.065L137.064 70.4307C137.044 70.4418 137.025 70.4532 137.006 70.4649L137.065 70.5H136.947L136.929 70.5109C123.095 78.5888 117.995 95.5426 103.698 103.796L70.4019 70.5H70.3337H70.3336Z" fill="white" stroke="#D3A475" stroke-width="4" stroke-miterlimit="22.9256" stroke-linejoin="round"/>
<path fill-rule="evenodd" clip-rule="evenodd" d="M70.4487 70.3853L70.4829 70.4195L70.5171 70.3853V70.4538L103.814 103.751C95.8332 117.575 78.8175 122.757 70.5171 137.001V137.117L70.518 137.116C70.5069 137.096 70.4954 137.077 70.4838 137.058L70.4487 137.117V136.999L70.4378 136.981C62.3599 123.147 45.406 118.046 37.1523 103.75L70.4487 70.4537V70.3854V70.3853Z" fill="white" stroke="#D3A475" stroke-width="4" stroke-miterlimit="22.9256" stroke-linejoin="round"/>
<path fill-rule="evenodd" clip-rule="evenodd" d="M70.5635 70.5L70.5293 70.5341L70.5636 70.5684H70.495L37.1977 103.866C23.3735 95.8845 18.1918 78.8687 3.9475 70.5684H3.83222L3.83297 70.5692C3.85268 70.5582 3.87202 70.5467 3.89127 70.5351L3.83203 70.5H3.94984L3.96824 70.4891C17.8017 62.4112 22.9024 45.4573 37.1987 37.2036L70.4951 70.5H70.5634H70.5635Z" fill="white" stroke="#D3A475" stroke-width="4" stroke-miterlimit="22.9256" stroke-linejoin="round"/>
<path fill-rule="evenodd" clip-rule="evenodd" d="M70.4482 70.6147L70.4141 70.5806L70.3798 70.6148V70.5463L37.0825 37.249C45.0637 23.4248 62.0794 18.243 70.3798 3.99877V3.88349L70.379 3.88424C70.39 3.90395 70.4015 3.92329 70.4131 3.94254L70.4482 3.8833V4.00111L70.4591 4.01951C78.537 17.853 95.4909 22.9537 103.745 37.25L70.4482 70.5464V70.6147V70.6147Z" fill="white" stroke="#D3A475" stroke-width="4" stroke-miterlimit="22.9256" stroke-linejoin="round"/>
<path fill-rule="evenodd" clip-rule="evenodd" d="M80.9264 49.6273C83.5841 49.3753 86.3423 49.4348 88.9863 49.5676L90.3629 49.6371L90.4324 51.0137C90.5652 53.6578 90.6248 56.416 90.3727 59.0736C95.1481 60.9902 99.7497 65.8029 103.04 69.4387L104 70.5001L103.04 71.5615C99.7497 75.1971 95.1493 80.0097 90.3727 81.9264C90.6247 84.5841 90.5652 87.3423 90.4324 89.9863L90.3629 91.3629L88.9863 91.4324C86.3422 91.5652 83.584 91.6248 80.9264 91.3727C79.0098 96.1481 74.1971 100.75 70.5615 104.04L69.5001 105L68.4387 104.04C64.8029 100.75 59.9903 96.1493 58.0736 91.3727C55.4159 91.6247 52.6577 91.5652 50.0137 91.4324L48.6371 91.3629L48.5676 89.9863C48.4348 87.3422 48.3752 84.584 48.6273 81.9264C43.8519 80.0098 39.2503 75.1971 35.9596 71.5615L35 70.5001L35.9596 69.4387C39.2503 65.8029 43.8507 60.9915 48.6273 59.0762C48.374 56.4172 48.4348 53.659 48.5676 51.0137L48.6371 49.6371L50.0137 49.5676C52.659 49.4348 55.4172 49.3752 58.0762 49.6273C59.9927 44.8507 64.8029 40.2503 68.4387 36.9596L69.5001 36L70.5615 36.9596C74.1971 40.2503 79.0097 44.8507 80.9264 49.6273Z" fill="#D3A475"/>
<path fill-rule="evenodd" clip-rule="evenodd" d="M69.5974 44L69.7993 44.1828C81.5826 54.8343 81.5203 59.8727 69.6114 70.5852L69.5973 70.5973L69.5832 70.5852C57.6732 59.8737 57.6119 54.8341 69.3953 44.1828L69.5974 44Z" stroke="white" stroke-width="3" stroke-miterlimit="22.9256" stroke-linejoin="round"/>
<path fill-rule="evenodd" clip-rule="evenodd" d="M85.5461 54.6482L85.5572 54.8792C86.2362 68.332 83.1775 71.3162 69.6124 70.5981L69.5963 70.5971L69.5953 70.581C68.8772 57.0157 71.8614 53.958 85.3142 54.6361L85.5451 54.6472L85.5461 54.6482Z" stroke="white" stroke-width="3" stroke-miterlimit="22.9256" stroke-linejoin="round"/>
<path fill-rule="evenodd" clip-rule="evenodd" d="M96.1943 70.5974L96.0115 70.7993C85.3601 82.5826 80.3217 82.5203 69.6092 70.6114L69.5972 70.5973L69.6092 70.5832C80.3207 58.6732 85.3602 58.6119 96.0115 70.3953L96.1943 70.5972V70.5974Z" stroke="white" stroke-width="3" stroke-miterlimit="22.9256" stroke-linejoin="round"/>
<path fill-rule="evenodd" clip-rule="evenodd" d="M85.5464 86.5459L85.3154 86.5569C71.8626 87.2359 68.8784 84.1773 69.5966 70.6122L69.5975 70.5961L69.6136 70.5951C83.1789 69.8769 86.2365 72.8611 85.5584 86.3139L85.5474 86.5449L85.5464 86.5459Z" stroke="white" stroke-width="3" stroke-miterlimit="22.9256" stroke-linejoin="round"/>
<path fill-rule="evenodd" clip-rule="evenodd" d="M69.5973 97.1943L69.3954 97.0115C57.6121 86.3601 57.6743 81.3217 69.5833 70.6092L69.5974 70.5972L69.6116 70.6092C81.5214 81.3207 81.5827 86.3602 69.7994 97.0115L69.5973 97.1943Z" stroke="white" stroke-width="3" stroke-miterlimit="22.9256" stroke-linejoin="round"/>
<path fill-rule="evenodd" clip-rule="evenodd" d="M53.6471 86.5459L53.6361 86.3149C52.9571 72.8621 56.0157 69.8779 69.581 70.5961L69.597 70.5971L69.598 70.6131C70.3162 84.1784 67.332 87.236 53.8791 86.5579L53.6481 86.5469L53.6471 86.5459Z" stroke="white" stroke-width="3" stroke-miterlimit="22.9256" stroke-linejoin="round"/>
<path fill-rule="evenodd" clip-rule="evenodd" d="M43 70.5973L43.1828 70.3954C53.8343 58.6121 58.8727 58.6743 69.5852 70.5833L69.5973 70.5974L69.5852 70.6116C58.8736 82.5214 53.8341 82.5827 43.1828 70.7994L43 70.5973Z" stroke="white" stroke-width="3" stroke-miterlimit="22.9256" stroke-linejoin="round"/>
<path fill-rule="evenodd" clip-rule="evenodd" d="M53.6474 54.6483L53.8784 54.6373C67.3313 53.9583 70.3155 57.0169 69.5973 70.5822L69.5964 70.5983L69.5803 70.5992C56.0149 71.3174 52.9573 68.3332 53.6354 54.8803L53.6464 54.6493L53.6474 54.6483Z" stroke="white" stroke-width="3" stroke-miterlimit="22.9256" stroke-linejoin="round"/>
</svg>
