<svg width="28" height="25" viewBox="0 0 28 25" fill="none" xmlns="http://www.w3.org/2000/svg">
<path d="M3.18882 10.6896H1.81997C1.2845 10.6896 0.85 11.1241 0.85 11.6596V13.2996C0.85 19.2599 5.69922 24.1092 11.6596 24.1092H14.1195H16.5794C22.5398 24.1092 27.389 19.2599 27.389 13.2996V11.6596C27.389 11.1241 26.9545 10.6896 26.4191 10.6896H25.0502C25.5096 9.48616 25.7491 8.20172 25.7491 6.90378V6.73979C25.7491 6.45456 25.6231 6.18317 25.4059 5.99894C25.1868 5.81317 24.9015 5.74094 24.6208 5.78295L24.6208 5.78293L24.6181 5.78339L22.8671 6.0785C22.867 6.07851 22.867 6.07852 22.8669 6.07853C21.5396 6.29792 20.262 6.7842 19.1046 7.48892C17.6303 3.06014 14.8319 1.12909 14.6589 1.01315V1.01314L14.6586 1.01295C14.3327 0.795684 13.9063 0.795684 13.5804 1.01295L13.5804 1.01294L13.5795 1.01355C13.4089 1.12909 10.6088 3.06001 9.13599 7.489C7.97733 6.78428 6.70123 6.29793 5.37542 6.07853C5.37536 6.07852 5.3753 6.07851 5.37525 6.0785L3.62091 5.78338L3.62091 5.78337L3.61952 5.78315C3.3402 5.73885 3.05336 5.81383 2.83368 5.99852C2.61391 6.18328 2.48994 6.45517 2.48994 6.73979V6.90378C2.48994 8.20172 2.72948 9.48616 3.18882 10.6896ZM23.185 7.99146L23.1854 7.99139L23.7519 7.89616C23.6369 8.88729 23.3418 9.85005 22.898 10.7473C21.8522 10.8493 20.8484 11.0993 19.9096 11.4784C19.8462 10.7709 19.7461 10.1076 19.6192 9.47998C20.6945 8.72112 21.9108 8.202 23.185 7.99146ZM5.05536 7.9914L5.05569 7.99146C6.32837 8.202 7.54466 8.72117 8.61848 9.48005C8.49278 10.1084 8.39156 10.7704 8.32915 11.478C7.39022 11.0978 6.38653 10.8492 5.34101 10.7473C4.89726 9.85147 4.60215 8.88744 4.48716 7.89609L5.05536 7.9914ZM13.1496 22.1692H11.6596C6.76852 22.1692 2.78994 18.1906 2.78994 13.2996V12.6296H4.27988C9.17098 12.6296 13.1496 16.6082 13.1496 21.4993V22.1692ZM10.2206 12.4811C10.4561 7.0127 12.9787 4.09896 14.1156 3.06767C15.2467 4.10551 17.781 7.04455 18.0184 12.4827C16.3285 13.5984 14.9673 15.1718 14.1195 17.0311C13.2717 15.1718 11.9105 13.5983 10.2206 12.4811ZM25.4491 13.2996C25.4491 18.1906 21.4705 22.1692 16.5794 22.1692H15.0895V21.4993C15.0895 16.6082 19.0681 12.6296 23.9592 12.6296H25.4491V13.2996Z" fill="white" stroke="white" stroke-width="0.3"/>
</svg>
