<svg width="139" height="139" viewBox="0 0 139 139" fill="none" xmlns="http://www.w3.org/2000/svg">
<path d="M21.7445 56.4254C23.7864 56.4254 25.4417 54.7701 25.4417 52.7282C25.4417 50.6863 23.7864 49.031 21.7445 49.031C19.7026 49.031 18.0473 50.6863 18.0473 52.7282C18.0473 54.7701 19.7026 56.4254 21.7445 56.4254Z" fill="#D3A475"/>
<path d="M89.9231 70.1278C91.9651 70.1278 93.6204 68.4725 93.6204 66.4306C93.6204 64.3887 91.9651 62.7334 89.9231 62.7334C87.8812 62.7334 86.2259 64.3887 86.2259 66.4306C86.2259 68.4725 87.8812 70.1278 89.9231 70.1278Z" fill="#D3A475"/>
<path d="M103.628 33.8664C105.67 33.8664 107.325 32.2111 107.325 30.1691C107.325 28.1272 105.67 26.4719 103.628 26.4719C101.586 26.4719 99.9305 28.1272 99.9305 30.1691C99.9305 32.2111 101.586 33.8664 103.628 33.8664Z" fill="#D3A475"/>
<path d="M50.8202 65.6166C52.8622 65.6166 54.5175 63.9613 54.5175 61.9194C54.5175 59.8775 52.8622 58.2222 50.8202 58.2222C48.7783 58.2222 47.123 59.8775 47.123 61.9194C47.123 63.9613 48.7783 65.6166 50.8202 65.6166Z" fill="#D3A475"/>
<path d="M37.2856 33.3644C39.3275 33.3644 40.9829 31.7091 40.9829 29.6672C40.9829 27.6253 39.3275 25.97 37.2856 25.97C35.2437 25.97 33.5884 27.6253 33.5884 29.6672C33.5884 31.7091 35.2437 33.3644 37.2856 33.3644Z" fill="#D3A475"/>
<path d="M69.4892 86.9912C75.2452 86.9912 80.4573 89.3248 84.2297 93.0972C88.002 96.8695 90.3357 102.082 90.3357 107.838C90.3357 113.594 88.002 118.806 84.2297 122.578C80.4573 126.35 75.2452 128.684 69.4892 128.684C63.7333 128.684 58.5211 126.35 54.7488 122.578C50.9764 118.806 48.6428 113.594 48.6428 107.838C48.6428 102.082 50.9764 96.8695 54.7488 93.0972C58.5211 89.3248 63.7333 86.9912 69.4892 86.9912ZM80.9215 96.4053C77.9958 93.4796 73.9539 91.6701 69.4892 91.6701C65.0246 91.6701 60.9827 93.4798 58.0569 96.4053C55.1312 99.3311 53.3217 103.373 53.3217 107.838C53.3217 112.302 55.1314 116.344 58.0569 119.27C60.9827 122.196 65.0246 124.005 69.4892 124.005C73.9539 124.005 77.9958 122.196 80.9215 119.27C83.8473 116.344 85.6568 112.302 85.6568 107.838C85.6568 103.373 83.8471 99.3311 80.9215 96.4053Z" fill="#D3A475"/>
<path d="M69.4885 77.5435C77.8535 77.5435 85.4272 80.9344 90.9094 86.4165C96.3914 91.8985 99.7824 99.4723 99.7824 107.837C99.7824 116.202 96.3914 123.776 90.9094 129.258C85.4272 134.74 77.8535 138.131 69.4885 138.131C61.1234 138.131 53.5496 134.74 48.0676 129.258C42.5856 123.776 39.1946 116.202 39.1946 107.837C39.1946 99.4723 42.5856 91.8985 48.0676 86.4165C53.5496 80.9344 61.1234 77.5435 69.4885 77.5435ZM87.6012 89.7248C82.966 85.0895 76.5619 82.2223 69.4885 82.2223C62.4151 82.2223 56.0109 85.0897 51.3758 89.7248C46.7407 94.3599 43.8733 100.764 43.8733 107.837C43.8733 114.911 46.7404 121.315 51.3758 125.95C56.0109 130.585 62.4151 133.453 69.4885 133.453C76.5619 133.453 82.966 130.586 87.6012 125.95C92.2365 121.315 95.1037 114.911 95.1037 107.837C95.1037 100.764 92.2363 94.3599 87.6012 89.7248Z" fill="#D3A475"/>
<path d="M69.4885 68.3464C71.5781 68.3464 73.4703 69.1938 74.8396 70.5631C76.2091 71.9326 77.0565 73.825 77.0565 75.9145C77.0565 78.0042 76.2091 79.8966 74.8396 81.2656C73.4704 82.6351 71.5782 83.4824 69.4885 83.4824C67.399 83.4824 65.5068 82.6351 64.1372 81.2656C62.7678 79.8963 61.9205 78.004 61.9205 75.9145C61.9205 73.825 62.7678 71.9328 64.1372 70.5631C65.5067 69.1938 67.399 68.3464 69.4885 68.3464ZM71.5315 73.8713C71.0089 73.3487 70.2864 73.0253 69.4885 73.0253C68.6907 73.0253 67.968 73.3487 67.4455 73.8713C66.9229 74.3939 66.5995 75.1165 66.5995 75.9144C66.5995 76.7122 66.9229 77.4347 67.4455 77.9573C67.9682 78.48 68.6907 78.8034 69.4885 78.8034C70.2863 78.8034 71.0089 78.4798 71.5315 77.9573C72.054 77.4347 72.3776 76.7121 72.3776 75.9144C72.3776 75.1165 72.0542 74.394 71.5315 73.8713Z" fill="#D3A475"/>
<path d="M69.4885 0C71.7972 0 73.8881 0.936223 75.4012 2.44933C76.9143 3.96243 77.8505 6.05316 77.8505 8.36204C77.8505 8.55454 77.8415 8.7674 77.8238 8.99911C77.8089 9.1981 77.7884 9.38561 77.7633 9.56076L72.8734 73.7711L70.1956 73.1064C70.1036 73.0836 69.9859 73.0629 69.8427 73.0456C69.7349 73.032 69.6164 73.0251 69.4884 73.0251C69.3603 73.0251 69.2419 73.0319 69.1338 73.0444C68.991 73.0629 68.8735 73.0836 68.7813 73.1064L66.1037 73.7711L61.2137 9.56076C61.1886 9.38561 61.1683 9.1981 61.1532 8.99911C61.1355 8.7674 61.1265 8.55454 61.1265 8.36204C61.1265 6.05316 62.0627 3.96243 63.5758 2.44933C65.0889 0.936223 67.1796 0 69.4885 0V0ZM72.0931 5.75748C71.4267 5.09115 70.5056 4.67885 69.4885 4.67885C68.4713 4.67885 67.5504 5.09115 66.8839 5.75748C66.2176 6.42382 65.8053 7.34466 65.8053 8.36204C65.8053 8.48122 65.8083 8.57822 65.8139 8.65199C65.8201 8.73481 65.8317 8.83061 65.8482 8.93771L65.8666 9.1115L69.4885 56.6716L73.1104 9.1115L73.1288 8.93771C73.1453 8.83061 73.1569 8.73481 73.1631 8.65199C73.1685 8.57822 73.1717 8.48122 73.1717 8.36204C73.1717 7.34481 72.7594 6.42397 72.0931 5.75748Z" fill="#D3A475"/>
<path d="M48.7292 36.6439C47.8056 35.7455 47.7853 34.2685 48.6835 33.3449C49.5818 32.4214 51.0589 32.401 51.9824 33.2992C55.487 36.6968 62.5408 38.4036 69.6426 38.4036C76.7029 38.4036 83.6295 36.7191 86.9598 33.3357C87.863 32.4173 89.3404 32.4051 90.2588 33.3082C91.1772 34.2114 91.1894 35.6888 90.2863 36.6072C86.0309 40.9302 77.8145 43.0825 69.6426 43.0825C61.4656 43.0825 53.1499 40.9294 48.7292 36.6437V36.6439Z" fill="#D3A475"/>
<path d="M27.1225 43.286C26.1989 42.3876 26.1786 40.9106 27.0768 39.987C27.9751 39.0634 29.4522 39.0431 30.3757 39.9413C38.3546 47.677 54.0865 51.5629 69.8146 51.5629C85.4751 51.5629 100.951 47.7129 108.565 39.978C109.468 39.0595 110.945 39.0473 111.864 39.9505C112.782 40.8537 112.794 42.331 111.891 43.2494C103.353 51.9241 86.5868 56.2419 69.8146 56.2419C53.0108 56.2419 36.0173 51.9097 27.1223 43.2861L27.1225 43.286Z" fill="#D3A475"/>
<path d="M46.3738 72.6534C47.6558 72.5223 48.8016 73.4551 48.9327 74.737C49.0638 76.019 48.131 77.1648 46.849 77.2959C41.162 77.8891 36.3425 80.2429 32.6197 83.6692C29.5203 86.5217 27.1733 90.1206 25.7107 94.0707C24.2407 98.0403 23.662 102.353 24.1065 106.613C24.6652 111.971 26.8485 117.258 30.9191 121.681C31.7922 122.629 31.7308 124.106 30.7821 124.98C29.8333 125.853 28.3563 125.791 27.4831 124.843C22.6932 119.638 20.1231 113.407 19.464 107.088C18.9444 102.107 19.6156 97.0774 21.3244 92.4625C23.0407 87.8276 25.8032 83.5966 29.4577 80.2334C33.8858 76.158 39.6155 73.3584 46.3737 72.6535L46.3738 72.6534Z" fill="#D3A475"/>
<path d="M27.0815 63.4464C28.3635 63.3153 29.5092 64.248 29.6403 65.53C29.7714 66.812 28.8387 67.9578 27.5567 68.0889C21.8697 68.682 17.0502 71.0359 13.3273 74.4621C10.228 77.3147 7.88093 80.9136 6.41836 84.8636C4.94841 88.8333 4.36972 93.1463 4.81414 97.4056C5.37292 102.764 7.55613 108.051 11.6267 112.474C12.4999 113.422 12.4385 114.899 11.4897 115.773C10.541 116.646 9.06395 116.584 8.19079 115.636C3.40091 110.431 0.830747 104.2 0.17165 97.881C-0.347904 92.8995 0.323261 87.8704 2.03203 83.2555C3.74833 78.6205 6.51084 74.3896 10.1654 71.0264C14.5935 66.9509 20.3232 64.1513 27.0813 63.4465L27.0815 63.4464Z" fill="#D3A475"/>
<path d="M92.1502 77.1284C90.8682 76.9973 89.9355 75.8516 90.0666 74.5696C90.1977 73.2876 91.3434 72.3548 92.6254 72.4859C99.3836 73.1907 105.113 75.9905 109.541 80.0658C113.196 83.4291 115.958 87.6601 117.675 92.2949C119.384 96.9098 120.055 101.939 119.535 106.92C118.876 113.24 116.306 119.471 111.516 124.675C110.643 125.624 109.166 125.685 108.217 124.812C107.268 123.939 107.207 122.462 108.08 121.513C112.15 117.09 114.334 111.803 114.893 106.445C115.337 102.186 114.758 97.8727 113.288 93.903C111.826 89.9528 109.479 86.354 106.379 83.5015C102.657 80.0753 97.8373 77.7214 92.1501 77.1283L92.1502 77.1284Z" fill="#D3A475"/>
<path d="M111.444 67.9221C110.162 67.791 109.229 66.6453 109.36 65.3633C109.491 64.0813 110.637 63.1485 111.919 63.2796C118.677 63.9844 124.407 66.7842 128.835 70.8595C132.489 74.2228 135.252 78.4538 136.968 83.0886C138.677 87.7035 139.348 92.7326 138.828 97.7141C138.17 104.034 135.599 110.264 130.809 115.469C129.936 116.417 128.459 116.479 127.51 115.606C126.562 114.733 126.5 113.255 127.373 112.307C131.444 107.884 133.627 102.597 134.186 97.2387C134.63 92.9794 134.052 88.6664 132.582 84.6967C131.119 80.7465 128.772 77.1477 125.673 74.2953C121.95 70.869 117.131 68.5151 111.443 67.922L111.444 67.9221Z" fill="#D3A475"/>
<path d="M59.2471 102.777C58.2329 101.985 58.0529 100.52 58.845 99.5053C59.6372 98.4911 61.1022 98.3111 62.1166 99.1033L70.2822 105.498H80.9016C82.1937 105.498 83.2411 106.545 83.2411 107.837C83.2411 109.129 82.1937 110.177 80.9016 110.177H68.6967L59.2472 102.777L59.2471 102.777Z" fill="#D3A475"/>
<path d="M102.536 90.7467C101.32 90.3177 100.682 88.9837 101.111 87.7674C101.54 86.5512 102.874 85.913 104.09 86.3418C105.76 86.9326 108.478 86.3682 110.998 85.2128C113.492 84.0699 115.64 82.4224 116.218 80.8277C116.657 79.6166 117.995 78.9905 119.206 79.4295C120.418 79.8685 121.044 81.2066 120.605 82.4177C119.584 85.2355 116.451 87.8412 112.935 89.4528C109.428 91.0608 105.383 91.7539 102.536 90.7467Z" fill="#D3A475"/>
<path d="M98.5486 107.216C97.3323 106.787 96.6941 105.453 97.123 104.237C97.552 103.021 98.886 102.382 100.102 102.811C103.093 103.869 107.787 102.937 112.069 100.974C116.32 99.0255 120.012 96.1352 121.058 93.2501C121.497 92.039 122.835 91.4129 124.046 91.8519C125.257 92.2909 125.883 93.629 125.444 94.8401C123.956 98.9476 119.279 102.797 114.007 105.214C108.737 107.63 102.715 108.69 98.5484 107.216H98.5486Z" fill="#D3A475"/>
<path d="M12.4137 95.4596C11.914 94.2737 12.4705 92.9069 13.6564 92.4072C14.8423 91.9076 16.2091 92.4641 16.7087 93.65C17.6694 95.9182 20.7199 98.1444 24.1646 99.602C27.581 101.047 31.2261 101.672 33.4268 100.76C34.6178 100.265 35.9844 100.83 36.4791 102.021C36.9736 103.212 36.4092 104.578 35.2181 105.073C31.8176 106.483 26.8044 105.78 22.355 103.897C17.9103 102.016 13.8669 98.8904 12.4137 95.4596Z" fill="#D3A475"/>
<path d="M19.247 78.1685C18.7474 76.9826 19.3039 75.6159 20.4898 75.1162C21.6757 74.6166 23.0425 75.1731 23.5421 76.359C24.5028 78.6271 27.5533 80.8533 30.9979 82.3109C34.4144 83.7565 38.0594 84.3812 40.2601 83.4688C41.4512 82.9743 42.8178 83.5386 43.3125 84.7298C43.807 85.9208 43.2426 87.2874 42.0514 87.7821C38.6509 89.1917 33.6378 88.4887 29.1884 86.606C24.7437 84.7253 20.7002 81.5993 19.247 78.1685Z" fill="#D3A475"/>
</svg>
