<svg width="145" height="146" viewBox="0 0 145 146" fill="none" xmlns="http://www.w3.org/2000/svg">
<path d="M145 44.4355C145 40.5672 141.852 37.4193 137.984 37.4193C137.179 37.4193 136.417 37.5831 135.697 37.8333L125.217 24.7342C125.886 23.6607 126.29 22.4048 126.29 21.0484C126.29 17.1802 123.142 14.0323 119.274 14.0323C117.307 14.0323 115.535 14.8508 114.26 16.1558L95.8239 7.64758C95.8426 7.4371 95.8871 7.23363 95.8871 7.01613C95.8871 3.1479 92.7392 0 88.8709 0C85.826 0 83.2534 1.96218 82.2851 4.67742H55.6987C54.7305 1.96218 52.1579 0 49.1129 0C45.2447 0 42.0968 3.1479 42.0968 7.01613C42.0968 7.30613 42.1482 7.58443 42.1833 7.86742L30.5833 13.6674C29.3204 12.4513 27.6131 11.6935 25.7258 11.6935C21.8576 11.6935 18.7097 14.8414 18.7097 18.7097C18.7097 20.0661 19.1143 21.322 19.7831 22.3955L9.30338 35.4946C8.58306 35.2443 7.82064 35.0806 7.01613 35.0806C3.1479 35.0806 0 38.2285 0 42.0968C0 45.1418 1.96218 47.7143 4.67742 48.6826V63.5778C1.96218 64.5437 0 67.1163 0 70.1613C0 74.0295 3.1479 77.1774 7.01613 77.1774C9.61443 77.1774 11.8596 75.7414 13.0734 73.6389L25.8404 75.9589C26.3806 79.2939 29.2573 81.8548 32.7419 81.8548C32.8355 81.8548 32.9243 81.8314 33.0179 81.8268L37.4802 92.9847C36.0208 94.271 35.0806 96.1326 35.0806 98.2258C35.0806 102.094 38.2285 105.242 42.0968 105.242C44.4495 105.242 46.5239 104.068 47.7962 102.288L67.867 108.023C68.0471 110.871 69.918 113.245 72.5 114.166V131.4C69.7847 132.369 67.8226 134.941 67.8226 137.986C67.8226 141.854 70.9705 145.002 74.8387 145.002C78.7069 145.002 81.8548 141.854 81.8548 137.986C81.8548 134.941 79.8926 132.369 77.1774 131.4V114.166C79.8926 113.198 81.8548 110.626 81.8548 107.581C81.8548 105.34 80.779 103.364 79.1396 102.078L81.932 93.698L102.917 100.693C102.973 103.68 104.905 106.194 107.581 107.148V131.398C104.865 132.366 102.903 134.939 102.903 137.984C102.903 141.852 106.051 145 109.919 145C113.788 145 116.935 141.852 116.935 137.984C116.935 134.939 114.973 132.366 112.258 131.398V107.15C114.973 106.182 116.935 103.609 116.935 100.564C116.935 99.7109 116.76 98.9017 116.479 98.1439L134.424 83.1902C135.47 83.8123 136.679 84.1935 137.984 84.1935C141.852 84.1935 145 81.0456 145 77.1774C145 74.1324 143.038 71.5598 140.323 70.5916V51.0189C143.038 50.0531 145 47.4805 145 44.4355ZM119.274 18.7097C120.563 18.7097 121.613 19.7574 121.613 21.0484C121.613 22.3393 120.563 23.3871 119.274 23.3871C117.986 23.3871 116.935 22.3393 116.935 21.0484C116.935 19.7574 117.986 18.7097 119.274 18.7097ZM115.949 27.1875C116.942 27.7301 118.065 28.0645 119.274 28.0645C120.079 28.0645 120.839 27.9008 121.559 27.6506L132.039 40.752C131.372 41.8255 130.968 43.079 130.968 44.4355C130.968 44.812 131.021 45.1745 131.08 45.537L114.513 54.5738L102.447 44.5197C102.728 43.7596 102.903 42.9504 102.903 42.0968C102.903 41.1472 102.709 40.2398 102.365 39.4143L115.949 27.1875ZM86.5322 65.4839C85.4518 65.4839 84.4414 65.7481 83.527 66.1878L73.6179 56.2787L91.1114 47.2068C92.3673 48.3809 94.0372 49.1129 95.8871 49.1129C97.1921 49.1129 98.3988 48.7317 99.4466 48.1096L110.095 56.9826L91.1909 67.294C89.9491 66.1808 88.3284 65.4839 86.5322 65.4839ZM88.8709 72.5C88.8709 73.7909 87.8209 74.8387 86.5322 74.8387C85.2436 74.8387 84.1935 73.7909 84.1935 72.5C84.1935 71.209 85.2436 70.1613 86.5322 70.1613C87.8209 70.1613 88.8709 71.209 88.8709 72.5ZM53.512 46.7438L57.4387 59.3962L37.5176 69.7263C36.6827 68.9475 35.6606 68.3815 34.524 68.0798L31.2826 43.224L47.3074 42.4218C48.3247 44.8868 50.7102 46.6315 53.512 46.7438ZM51.4516 39.7581C51.4516 38.4671 52.5017 37.4193 53.7903 37.4193C55.0789 37.4193 56.129 38.4671 56.129 39.7581C56.129 41.049 55.0789 42.0968 53.7903 42.0968C52.5017 42.0968 51.4516 41.049 51.4516 39.7581ZM58.8443 63.938L64.7752 83.0522L39.744 74.7077C39.7393 74.4271 39.6973 74.1558 39.6598 73.8845L58.8443 63.938ZM58.8279 48.1049L65.7926 55.0672L61.6554 57.2118L58.8279 48.1049ZM60.1048 42.7633C60.5422 41.8489 60.8064 40.8385 60.8064 39.7581C60.8064 38.7618 60.5913 37.8169 60.2171 36.9586L71.3213 26.5935L89.2218 40.0177C89.0136 40.6818 88.8709 41.3694 88.8709 42.0968C88.8709 42.4242 88.9247 42.7352 88.9668 43.051L70.1472 52.8081L60.1048 42.7633ZM93.5484 42.0968C93.5484 40.8058 94.5984 39.7581 95.8871 39.7581C97.1757 39.7581 98.2258 40.8058 98.2258 42.0968C98.2258 43.3877 97.1757 44.4355 95.8871 44.4355C94.5984 44.4355 93.5484 43.3877 93.5484 42.0968ZM113.961 60.2031L130.717 74.1675L94.409 70.8676L113.961 60.2031ZM88.8709 4.67742C90.1596 4.67742 91.2097 5.72516 91.2097 7.01613C91.2097 8.30709 90.1596 9.35484 88.8709 9.35484C87.5823 9.35484 86.5322 8.30709 86.5322 7.01613C86.5322 5.72516 87.5823 4.67742 88.8709 4.67742ZM85.6576 13.216C86.6234 13.7189 87.7063 14.0323 88.8709 14.0323C90.8378 14.0323 92.6105 13.2137 93.8875 11.9064L112.321 20.4146C112.302 20.6274 112.258 20.8309 112.258 21.0484C112.258 22.0002 112.452 22.9053 112.796 23.7332L99.2127 35.9577C98.2188 35.4151 97.0962 35.0806 95.8871 35.0806C94.4511 35.0806 93.1157 35.518 92.0025 36.2617L74.7943 23.3543L85.6576 13.216ZM82.2851 9.35484C82.3413 9.50685 82.381 9.66588 82.4442 9.81322L70.9915 20.5011L56.129 9.35484H82.2851ZM49.1129 4.67742C50.4015 4.67742 51.4516 5.72516 51.4516 7.01613C51.4516 8.30709 50.4015 9.35484 49.1129 9.35484C47.8243 9.35484 46.7742 8.30709 46.7742 7.01613C46.7742 5.72516 47.8243 4.67742 49.1129 4.67742ZM32.7419 18.7097C32.7419 18.4197 32.6905 18.1414 32.6554 17.8607L44.2554 12.0607C45.5183 13.2745 47.2256 14.0323 49.1129 14.0323C50.5489 14.0323 51.8843 13.5949 52.9975 12.8512L67.5185 23.7426L57.0037 33.5558C56.0378 33.053 54.955 32.7419 53.7903 32.7419C50.6237 32.7419 47.9716 34.8631 47.1016 37.7491L30.6745 38.57L28.8971 24.933C31.168 23.7706 32.7419 21.4319 32.7419 18.7097ZM25.7258 16.371C27.0144 16.371 28.0645 17.4187 28.0645 18.7097C28.0645 20.0006 27.0144 21.0484 25.7258 21.0484C24.4372 21.0484 23.3871 20.0006 23.3871 18.7097C23.3871 17.4187 24.4372 16.371 25.7258 16.371ZM23.4385 25.3118C23.7098 25.4054 23.9764 25.506 24.2594 25.5668L25.9854 38.8062L13.499 39.4306C13.3517 39.0728 13.1623 38.7384 12.9588 38.411L23.4385 25.3118ZM7.01613 39.7581C8.30476 39.7581 9.35484 40.8058 9.35484 42.0968C9.35484 43.3877 8.30476 44.4355 7.01613 44.4355C5.7275 44.4355 4.67742 43.3877 4.67742 42.0968C4.67742 40.8058 5.7275 39.7581 7.01613 39.7581ZM7.01613 72.5C5.7275 72.5 4.67742 71.4522 4.67742 70.1613C4.67742 68.8703 5.7275 67.8226 7.01613 67.8226C8.30476 67.8226 9.35484 68.8703 9.35484 70.1613C9.35484 71.4522 8.30476 72.5 7.01613 72.5ZM26.6847 71.361L13.92 69.041C13.506 66.4942 11.7286 64.4221 9.35484 63.5755V48.6802C11.4433 47.9342 13.0617 46.2386 13.7048 44.1034L26.5958 43.4579L29.856 68.4587C28.5135 69.0691 27.4167 70.0911 26.6847 71.361ZM32.7419 77.1774C31.4533 77.1774 30.4032 76.1297 30.4032 74.8387C30.4032 73.5477 31.4533 72.5 32.7419 72.5C34.0306 72.5 35.0806 73.5477 35.0806 74.8387C35.0806 76.1297 34.0306 77.1774 32.7419 77.1774ZM42.0968 100.564C40.8081 100.564 39.7581 99.5167 39.7581 98.2258C39.7581 96.9348 40.8081 95.8871 42.0968 95.8871C43.3854 95.8871 44.4355 96.9348 44.4355 98.2258C44.4355 99.5167 43.3854 100.564 42.0968 100.564ZM69.1416 103.518L49.0708 97.7838C48.8346 94.1237 45.8153 91.2097 42.0968 91.2097C42.0032 91.2097 41.9143 91.233 41.8208 91.2377L37.3585 80.0797C37.6836 79.7921 37.9783 79.4787 38.2472 79.1372L66.4848 88.5505L70.6547 101.984C70.0771 102.419 69.5626 102.931 69.1416 103.518ZM74.8387 140.323C73.5501 140.323 72.5 139.275 72.5 137.984C72.5 136.693 73.5501 135.645 74.8387 135.645C76.1273 135.645 77.1774 136.693 77.1774 137.984C77.1774 139.275 76.1273 140.323 74.8387 140.323ZM74.8387 109.919C73.5501 109.919 72.5 108.872 72.5 107.581C72.5 106.29 73.5501 105.242 74.8387 105.242C76.1273 105.242 77.1774 106.29 77.1774 107.581C77.1774 108.872 76.1273 109.919 74.8387 109.919ZM74.9182 99.9471L71.9457 90.3724L77.4931 92.2223L74.9182 99.9471ZM78.9735 87.7834L70.2408 84.8718L63.0656 61.7513L69.2632 58.5379L80.2201 69.4947C79.7804 70.4092 79.5161 71.4195 79.5161 72.5C79.5161 74.7405 80.5919 76.719 82.2337 78.003L78.9735 87.7834ZM109.919 140.323C108.631 140.323 107.581 139.275 107.581 137.984C107.581 136.693 108.631 135.645 109.919 135.645C111.208 135.645 112.258 136.693 112.258 137.984C112.258 139.275 111.208 140.323 109.919 140.323ZM109.919 102.903C108.631 102.903 107.581 101.855 107.581 100.564C107.581 99.2735 108.631 98.2258 109.919 98.2258C111.208 98.2258 112.258 99.2735 112.258 100.564C112.258 101.855 111.208 102.903 109.919 102.903ZM113.479 94.5493C112.431 93.9296 111.224 93.5484 109.919 93.5484C107.679 93.5484 105.7 94.6242 104.416 96.2659L83.4101 89.2638L86.6632 79.5021C89.4276 79.4506 91.792 77.7948 92.8865 75.4257L131.209 78.9081C131.269 79.1419 131.34 79.3711 131.424 79.5956L113.479 94.5493ZM118.378 57.7918L133.325 49.6391C133.996 50.2425 134.78 50.7102 135.647 51.0189V70.5916C135.217 70.7459 134.81 70.9354 134.424 71.1646L118.378 57.7918ZM137.984 79.5161C136.695 79.5161 135.645 78.4684 135.645 77.1774C135.645 75.8864 136.695 74.8387 137.984 74.8387C139.272 74.8387 140.323 75.8864 140.323 77.1774C140.323 78.4684 139.272 79.5161 137.984 79.5161ZM137.984 46.7742C136.695 46.7742 135.645 45.7264 135.645 44.4355C135.645 43.1445 136.695 42.0968 137.984 42.0968C139.272 42.0968 140.323 43.1445 140.323 44.4355C140.323 45.7264 139.272 46.7742 137.984 46.7742Z" fill="#D3A475"/>
<path d="M9.35473 0H4.67731V4.67742H9.35473V0Z" fill="#D3A475"/>
<path d="M9.35473 9.35498H4.67731V14.0324H9.35473V9.35498Z" fill="#D3A475"/>
<path d="M14.0325 4.67725H9.3551V9.35466H14.0325V4.67725Z" fill="#D3A475"/>
<path d="M4.67742 4.67725H0V9.35466H4.67742V4.67725Z" fill="#D3A475"/>
<path d="M126.29 107.581H121.613V112.258H126.29V107.581Z" fill="#D3A475"/>
<path d="M126.29 116.936H121.613V121.613H126.29V116.936Z" fill="#D3A475"/>
<path d="M130.968 112.258H126.29V116.935H130.968V112.258Z" fill="#D3A475"/>
<path d="M121.613 112.258H116.936V116.935H121.613V112.258Z" fill="#D3A475"/>
<path d="M140.322 9.35498H135.645V14.0324H140.322V9.35498Z" fill="#D3A475"/>
<path d="M140.322 18.7095H135.645V23.3869H140.322V18.7095Z" fill="#D3A475"/>
<path d="M145 14.0322H140.323V18.7096H145V14.0322Z" fill="#D3A475"/>
<path d="M135.645 14.0322H130.968V18.7096H135.645V14.0322Z" fill="#D3A475"/>
<path d="M32.7417 112.258H28.0643V116.935H32.7417V112.258Z" fill="#D3A475"/>
<path d="M32.7417 121.613H28.0643V126.29H32.7417V121.613Z" fill="#D3A475"/>
<path d="M37.4191 116.936H32.7416V121.613H37.4191V116.936Z" fill="#D3A475"/>
<path d="M28.0644 116.936H23.387V121.613H28.0644V116.936Z" fill="#D3A475"/>
<path d="M18.7098 86.5322H14.0324V91.2096H18.7098V86.5322Z" fill="#D3A475"/>
<path d="M18.7098 95.8872H14.0324V100.565H18.7098V95.8872Z" fill="#D3A475"/>
<path d="M23.3866 91.2095H18.7092V95.8869H23.3866V91.2095Z" fill="#D3A475"/>
<path d="M14.0325 91.2095H9.3551V95.8869H14.0325V91.2095Z" fill="#D3A475"/>
</svg>
