<svg width="115" height="140" viewBox="0 0 115 140" fill="none" xmlns="http://www.w3.org/2000/svg">
<path d="M52.2598 81.6598C55.1487 79.0473 59.8491 79.0473 62.7377 81.6598C63.1804 82.0601 63.761 82.2605 64.3412 82.2605C64.9215 82.2605 65.502 82.0603 65.9447 81.6598C66.8304 80.8589 66.8304 79.5603 65.9447 78.7597C61.2875 74.5482 53.7097 74.5482 49.0525 78.7597C48.1669 79.5606 48.1669 80.8591 49.0525 81.6598C49.9382 82.4607 51.3742 82.4607 52.2598 81.6598Z" fill="#D3A475"/>
<path d="M79.3155 28.8438V26.0815C79.3155 24.949 78.3002 24.0308 77.0477 24.0308C75.7953 24.0308 74.7799 24.949 74.7799 26.0815V28.8438C74.7799 29.9764 75.7953 30.8946 77.0477 30.8946C78.3002 30.8946 79.3155 29.9764 79.3155 28.8438Z" fill="#D3A475"/>
<path d="M57.4996 25.4116C56.2472 25.4116 55.2318 26.3298 55.2318 27.4624V30.2247C55.2318 31.3572 56.2472 32.2755 57.4996 32.2755C58.7521 32.2755 59.7674 31.3572 59.7674 30.2247V27.4624C59.7674 26.3298 58.7521 25.4116 57.4996 25.4116Z" fill="#D3A475"/>
<path d="M37.9506 24.0308C36.6981 24.0308 35.6827 24.949 35.6827 26.0815V28.8438C35.6827 29.9764 36.6981 30.8946 37.9506 30.8946C39.203 30.8946 40.2184 29.9764 40.2184 28.8438V26.0815C40.2184 24.949 39.203 24.0308 37.9506 24.0308Z" fill="#D3A475"/>
<path d="M114.133 16.1727L101.597 7.27016C100.663 6.6068 99.321 6.70715 98.5207 7.50094L90.0484 15.9001C87.1883 11.9577 83.5259 8.62832 79.3162 6.05172V2.05078C79.3162 0.918203 78.3009 0 77.0484 0C75.796 0 74.7806 0.918203 74.7806 2.05078V3.6627C73.0825 2.90145 71.3214 2.25203 69.5099 1.72047C69.3348 0.745391 68.402 0 67.2742 0C66.5651 0 65.9322 0.294766 65.5164 0.755508C62.91 0.259766 60.2261 0 57.4999 0C54.7737 0 57.4999 0 57.4999 0C54.7713 0 52.0862 0.25457 49.4761 0.746758C49.0597 0.290664 48.4302 0 47.7253 0C46.6053 0 45.6773 0.734727 45.4932 1.69996C43.6835 2.22852 41.9215 2.87684 40.2189 3.64109V2.05078C40.2189 0.918203 39.2035 0 37.9511 0C36.6986 0 35.6833 0.918203 35.6833 2.05078V6.03914C33.6582 7.2841 31.7475 8.70953 29.9786 10.3097C28.0897 12.0179 26.4085 13.8923 24.9508 15.9001L24.8948 15.8446C24.0506 15.0076 22.6161 14.9486 21.6909 15.7114C20.7656 16.4749 20.6997 17.7718 21.5436 18.6088L25.1047 22.1394L22.2908 24.1366C21.3123 24.8311 21.1351 26.1084 21.8931 27L28.1215 34.3241L12.6752 27.4373L16.1259 24.9867C16.738 24.552 17.0609 23.864 16.9811 23.1637C16.9012 22.4634 16.4301 21.8493 15.7332 21.5365L6.4941 17.3912L14.5551 11.6681C15.4111 12.3782 16.7404 12.3916 17.6145 11.6709C18.5401 10.9077 18.606 9.61051 17.7621 8.77352L16.48 7.50203C15.6799 6.70852 14.338 6.60762 13.404 7.27098L0.867512 16.1711C0.255505 16.6059 -0.0677342 17.2938 0.0120927 17.9941C0.0916173 18.6944 0.562717 19.3085 1.25999 19.6213L10.5 23.7666L7.0414 26.2227C6.42849 26.658 6.10585 27.3473 6.18659 28.0481C6.26732 28.7489 6.74054 29.3634 7.43933 29.6748L18.5864 34.6451C18.583 34.8291 18.5779 35.0134 18.5779 35.1966V44.5588C14.9488 46.2932 12.469 49.7402 12.469 53.7031C12.469 59.4032 17.597 64.0404 23.9003 64.0404H24.7654C25.5833 74.8284 32.8065 84.0487 43.0137 88.6088V98.2305L26.5887 101.944C19.2383 103.603 12.9921 108.033 9.45163 114.097C8.86684 115.098 9.29077 116.339 10.3981 116.868C10.7358 117.029 11.0978 117.105 11.4552 117.105C12.2692 117.105 13.0559 116.708 13.4626 116.012C16.402 110.978 21.5868 107.301 27.6882 105.923L33.8085 104.539C36.2097 114.509 45.9746 121.769 57.4996 121.769C69.0246 121.769 78.7895 114.509 81.1907 104.539L87.3113 105.923C97.199 108.157 104.105 116.154 104.105 125.371V135.898H87.2578V129.11C87.2578 127.978 86.2424 127.06 84.99 127.06C83.7376 127.06 82.7222 127.978 82.7222 129.11V135.898H32.277V129.11C32.277 127.978 31.2616 127.06 30.0092 127.06C28.7568 127.06 27.7414 127.978 27.7414 129.11V135.898H10.8946V125.371C10.8946 125.016 10.9036 124.679 10.9218 124.368C10.9874 123.237 10.0267 122.272 8.77582 122.213C7.52157 122.155 6.45782 123.022 6.3922 124.153C6.37013 124.535 6.35894 124.945 6.35894 125.371V137.949C6.35894 139.082 7.37432 140 8.62675 140H106.372C107.625 140 108.64 139.082 108.64 137.949V125.371C108.64 114.269 100.322 104.635 88.4111 101.944L71.9855 98.2305V88.6364C75.3727 87.127 78.4805 85.0749 81.1828 82.5262C82.0497 81.7086 82.0195 80.4106 81.1154 79.6266C80.2116 78.8427 78.7759 78.87 77.909 79.6876C75.3318 82.1182 72.3265 84.0241 69.0409 85.3527C68.8831 85.3973 68.7334 85.4585 68.5925 85.5315C65.1382 86.8626 61.3851 87.5602 57.4996 87.5602C42.0891 87.5602 29.5199 76.3558 29.2285 62.4832L32.5618 56.7164C34.2839 53.7373 37.6629 51.8867 41.38 51.8867H47.1142C63.8126 51.8867 71.778 42.5135 74.0824 39.1806H74.1245C75.474 39.1806 76.6925 39.9503 77.1573 41.096L85.7725 62.3438C85.7211 65.8235 84.9126 69.1857 83.3632 72.3417C82.8549 73.377 83.3711 74.5886 84.5159 75.0482C84.8149 75.1682 85.1273 75.2251 85.4351 75.2251C86.3041 75.2251 87.1335 74.7707 87.5091 74.0061C89.0642 70.8384 89.9762 67.4942 90.2347 64.0399H91.0992C97.4025 64.0399 102.53 59.4027 102.53 53.7026C102.53 49.7396 100.05 46.2927 96.4216 44.5583V35.1969C96.4216 35.0137 96.4164 34.8294 96.4131 34.6454L107.559 29.6754C108.258 29.3636 108.731 28.7495 108.812 28.0484C108.892 27.3476 108.57 26.6582 107.957 26.2232L104.5 23.768L113.74 19.6227C114.438 19.3099 114.909 18.6957 114.988 17.9955C115.068 17.2955 114.745 16.6075 114.133 16.1727ZM57.4996 117.668C48.0842 117.668 40.1118 111.71 38.2087 103.545L43.294 102.395C44.616 108.395 50.4821 112.931 57.4996 112.931C64.5171 112.931 70.3832 108.395 71.7052 102.395L76.7905 103.545C74.8874 111.71 66.9149 117.668 57.4996 117.668ZM67.4498 90.2841V99.8312C67.4498 104.793 62.9862 108.829 57.4996 108.829C52.013 108.829 47.5493 104.792 47.5493 99.8312V90.2655C50.6892 91.1712 54.032 91.6614 57.4996 91.6614C60.934 91.6617 64.2788 91.1909 67.4498 90.2841ZM17.0047 53.7031C17.0047 50.2646 20.0979 47.4674 23.9003 47.4674H24.6871V59.9386H23.9003C20.0982 59.9389 17.0047 57.1416 17.0047 53.7031ZM74.1245 35.0796H72.7719C71.9099 35.0796 71.1225 35.5214 70.7397 36.2201C70.6765 36.3357 64.2069 47.7857 47.1142 47.7857H41.38C36.4213 47.7857 31.8773 50.0489 29.2227 53.7641V45.4169C29.2227 44.2843 28.2073 43.3661 26.9549 43.3661H23.9003C23.6357 43.3661 23.3739 43.3773 23.1135 43.3934V36.6641L34.8587 41.9007C35.1789 42.0435 35.5215 42.1124 35.8604 42.1124C36.5232 42.1124 37.173 41.8493 37.6154 41.3615C38.284 40.6241 38.3021 39.5672 37.6593 38.8112L26.8575 26.1092L29.8263 24.0023C30.3224 23.6502 30.6339 23.1273 30.6862 22.5591C30.7385 21.9907 30.5269 21.4285 30.1017 21.0071L28.1193 19.0416C29.5426 16.9282 31.2395 14.9702 33.1862 13.2098C33.9869 12.4854 34.8203 11.8016 35.6833 11.1587V17.243C35.6833 18.3755 36.6986 19.2937 37.9511 19.2937C39.2035 19.2937 40.2189 18.3755 40.2189 17.243V8.30074C41.8943 7.41699 43.646 6.66641 45.4575 6.055V25.3312C45.4575 26.4638 46.4729 27.382 47.7253 27.382C48.9778 27.382 49.9931 26.4638 49.9931 25.3312V4.84094C51.7052 4.49805 53.4556 4.27383 55.2318 4.16992V18.6238C55.2318 19.7564 56.2472 20.6746 57.4996 20.6746C58.752 20.6746 59.7674 19.7564 59.7674 18.6238V4.1702C61.5448 4.27602 63.2943 4.50871 65.006 4.85488V25.3312C65.006 26.4638 66.0214 27.382 67.2739 27.382C68.5263 27.382 69.5417 26.4638 69.5417 25.3312V6.07414C71.3577 6.68855 73.1097 7.43887 74.7803 8.31715V17.243C74.7803 18.3755 75.7957 19.2937 77.0481 19.2937C78.3006 19.2937 79.3159 18.3755 79.3159 17.243V11.1658C82.2698 13.358 84.837 16.0079 86.8795 19.0414L84.8975 21.0063C84.4726 21.4277 84.2607 21.9896 84.313 22.5578C84.365 23.126 84.6764 23.6491 85.1723 24.001L88.1413 26.1095L79.1109 36.7284C77.7403 35.6902 75.985 35.0796 74.1245 35.0796ZM91.0989 59.9389H90.3121V47.4677H91.0989C94.9012 47.4677 97.9945 50.2649 97.9945 53.7034C97.9945 57.1419 94.9009 59.9389 91.0989 59.9389ZM91.8857 43.3932C91.6253 43.377 91.3635 43.3658 91.0989 43.3658H88.0443C86.7919 43.3658 85.7765 44.284 85.7765 45.4166V50.4394L81.9817 41.0802L91.8857 36.6639V43.3932ZM99.2654 21.5373C98.5681 21.8501 98.097 22.4643 98.0175 23.1645C97.9377 23.8645 98.2606 24.5528 98.8726 24.9875L102.322 27.4373L86.8783 34.3241L93.1057 27.0011C93.8638 26.1097 93.6866 24.8328 92.7087 24.1382L89.8942 22.1394L100.452 11.6725L108.506 17.392L99.2654 21.5373Z" fill="#D3A475"/>
<path d="M77.405 59.4595C77.405 58.3269 76.3897 57.4087 75.1372 57.4087C73.8848 57.4087 72.8694 58.3269 72.8694 59.4595C72.8694 60.7654 71.6944 61.8283 70.2499 61.8283C68.8055 61.8283 67.6305 60.7657 67.6305 59.4595C67.6305 58.3269 66.6151 57.4087 65.3627 57.4087C64.1102 57.4087 63.0948 58.3269 63.0948 59.4595C63.0948 63.027 66.3046 65.9298 70.2499 65.9298C74.1953 65.9298 77.405 63.0273 77.405 59.4595Z" fill="#D3A475"/>
<path d="M51.9048 59.4595C51.9048 58.3269 50.8894 57.4087 49.637 57.4087C48.3845 57.4087 47.3692 58.3269 47.3692 59.4595C47.3692 60.7654 46.1941 61.8283 44.7497 61.8283C43.3053 61.8283 42.1302 60.7657 42.1302 59.4595C42.1302 58.3269 41.1149 57.4087 39.8624 57.4087C38.61 57.4087 37.5946 58.3269 37.5946 59.4595C37.5946 63.027 40.8043 65.9298 44.7497 65.9298C48.6951 65.9298 51.9048 63.0273 51.9048 59.4595Z" fill="#D3A475"/>
</svg>
