<svg width="27" height="27" viewBox="0 0 27 27" fill="none" xmlns="http://www.w3.org/2000/svg">
<path d="M19.1402 15.6421L19.1304 15.7241C16.7262 14.5258 16.4748 14.3662 16.1643 14.8319C15.9489 15.1544 15.3214 15.8859 15.1322 16.1023C14.9409 16.3155 14.7507 16.3319 14.426 16.1843C14.098 16.0203 13.0451 15.676 11.7988 14.5608C10.8279 13.6916 10.1763 12.6257 9.98391 12.2977C9.66357 11.7445 10.3338 11.6658 10.9438 10.5112C11.0531 10.2816 10.9974 10.1012 10.9165 9.93835C10.8345 9.77435 10.1818 8.16721 9.90847 7.52654C9.64608 6.88806 9.37603 6.96896 9.17377 6.96896C8.54404 6.9143 8.08376 6.92304 7.67815 7.34505C5.91357 9.28456 6.35854 11.2853 7.86838 13.4128C10.8356 17.2962 12.4165 18.0112 15.3072 19.0039C16.0878 19.2521 16.7995 19.2171 17.3625 19.1362C17.9901 19.0367 19.2944 18.348 19.5666 17.5772C19.8454 16.8064 19.8454 16.1668 19.7634 16.0192C19.6825 15.8717 19.4682 15.7897 19.1402 15.6421Z" fill="white"/>
<path d="M22.4344 3.77124C14.028 -4.35521 0.115889 1.53874 0.110423 13.003C0.110423 15.2946 0.710641 17.5292 1.85423 19.5026L0 26.2395L6.92601 24.4334C15.5685 29.1018 26.2347 22.9028 26.239 13.0096C26.239 9.53727 24.8834 6.26942 22.418 3.81388L22.4344 3.77124ZM24.0546 12.9735C24.0481 21.3186 14.8874 26.5303 7.64212 22.2709L7.24854 22.0369L3.14869 23.1029L4.24745 19.1178L3.98615 18.7078C-0.522595 11.5303 4.65743 2.14989 13.1982 2.14989C16.0998 2.14989 18.8232 3.28145 20.8743 5.33137C22.9242 7.36381 24.0546 10.0872 24.0546 12.9735Z" fill="white"/>
</svg>
