<svg width="76" height="19" viewBox="0 0 76 19" fill="none" xmlns="http://www.w3.org/2000/svg">
<path d="M11.593 9.11692C11.61 7.85392 12.277 6.68692 13.363 6.02492C12.675 5.05092 11.564 4.45492 10.366 4.41792C9.106 4.28792 7.88401 5.16692 7.24101 5.16692C6.58701 5.16692 5.59801 4.43092 4.53301 4.45292C3.13201 4.49792 1.85701 5.26892 1.17501 6.48392C-0.275994 8.97792 0.806006 12.6429 2.19701 14.6579C2.89301 15.6449 3.70601 16.7479 4.77001 16.7079C5.81101 16.6659 6.20001 16.0499 7.45701 16.0499C8.70201 16.0499 9.06701 16.7089 10.152 16.6839C11.27 16.6659 11.973 15.6919 12.645 14.6959C13.145 13.9929 13.529 13.2159 13.785 12.3929C12.458 11.8359 11.595 10.5459 11.593 9.11692ZM9.543 3.09292C10.152 2.36692 10.453 1.43492 10.379 0.49292C9.44901 0.58992 8.58901 1.03192 7.97201 1.72892C7.36201 2.41792 7.05301 3.31892 7.11301 4.23192C8.05601 4.24192 8.95201 3.82192 9.543 3.09192V3.09292Z" fill="white"/>
<path d="M24.755 14.2099H21.202L20.349 16.7089H18.843L22.209 7.46188H23.773L27.138 16.7089H25.608L24.755 14.2089V14.2099ZM21.57 13.0559H24.386L22.998 8.99988H22.959L21.569 13.0559H21.57ZM34.406 13.3379C34.406 15.4329 33.276 16.7799 31.57 16.7799C30.688 16.8249 29.858 16.3669 29.432 15.5999H29.4V18.9399H28.005V9.96688H29.355V11.0869H29.381C29.826 10.3249 30.657 9.86688 31.544 9.89488C33.269 9.89488 34.406 11.2479 34.406 13.3369V13.3379ZM32.972 13.3379C32.972 11.9729 32.262 11.0759 31.176 11.0759C30.111 11.0759 29.394 11.9919 29.394 13.3379C29.394 14.6969 30.111 15.6069 31.176 15.6069C32.261 15.6069 32.972 14.7159 32.972 13.3379ZM41.886 13.3379C41.886 15.4329 40.756 16.7799 39.05 16.7799C38.168 16.8249 37.338 16.3669 36.912 15.5999H36.88V18.9399H35.485V9.96688H36.835V11.0869H36.86C37.305 10.3249 38.137 9.86688 39.024 9.89488C40.749 9.89488 41.886 11.2479 41.886 13.3369V13.3379ZM40.452 13.3379C40.452 11.9729 39.742 11.0759 38.656 11.0759C37.591 11.0759 36.874 11.9919 36.874 13.3379C36.874 14.6969 37.591 15.6069 38.656 15.6069C39.741 15.6069 40.452 14.7159 40.452 13.3379ZM46.83 14.1319C46.933 15.0489 47.831 15.6519 49.058 15.6519C50.234 15.6519 51.08 15.0489 51.08 14.2219C51.08 13.5049 50.57 13.0749 49.362 12.7799L48.154 12.4919C46.442 12.0819 45.648 11.2869 45.648 9.99888C45.648 8.40288 47.049 7.30688 49.039 7.30688C51.009 7.30688 52.359 8.40288 52.405 9.99888H50.997C50.912 9.07588 50.143 8.51888 49.02 8.51888C47.896 8.51888 47.127 9.08288 47.127 9.90288C47.127 10.5569 47.617 10.9409 48.819 11.2359L49.846 11.4859C51.759 11.9349 52.554 12.6959 52.554 14.0489C52.554 15.7789 51.164 16.8629 48.955 16.8629C46.888 16.8629 45.492 15.8049 45.402 14.1329H46.83V14.1319ZM55.564 8.37088V9.96688H56.857V11.0629H55.563V14.7799C55.563 15.3569 55.822 15.6259 56.39 15.6259C56.543 15.6229 56.697 15.6129 56.849 15.5939V16.6839C56.593 16.7309 56.334 16.7519 56.074 16.7479C54.698 16.7479 54.162 16.2349 54.162 14.9279V11.0619H53.173V9.96688H54.162V8.37088H55.563H55.564ZM57.605 13.3379C57.605 11.2169 58.865 9.88388 60.828 9.88388C62.798 9.88388 64.052 11.2169 64.052 13.3379C64.052 15.4649 62.805 16.7929 60.828 16.7929C58.852 16.7929 57.605 15.4649 57.605 13.3379ZM62.631 13.3379C62.631 11.8829 61.959 11.0239 60.828 11.0239C59.698 11.0239 59.026 11.8899 59.026 13.3379C59.026 14.7989 59.698 15.6519 60.828 15.6519C61.958 15.6519 62.631 14.7989 62.631 13.3379ZM65.203 9.96688H66.533V11.1139H66.565C66.751 10.3759 67.433 9.86688 68.2 9.89588C68.36 9.89588 68.52 9.91288 68.678 9.94788V11.2419C68.475 11.1809 68.263 11.1519 68.051 11.1589C67.641 11.1419 67.244 11.3039 66.964 11.6029C66.684 11.9009 66.551 12.3049 66.597 12.7099V16.7089H65.203V9.96688ZM75.109 14.7289C74.922 15.9529 73.72 16.7929 72.183 16.7929C70.206 16.7929 68.979 15.4789 68.979 13.3699C68.979 11.2559 70.213 9.88388 72.124 9.88388C74.004 9.88388 75.187 11.1649 75.187 13.2099V13.6839H70.387V13.7669C70.342 14.2689 70.517 14.7669 70.867 15.1319C71.217 15.4969 71.707 15.6959 72.215 15.6769C72.892 15.7399 73.53 15.3539 73.785 14.7289H75.109ZM70.394 12.7169H73.791C73.817 12.2649 73.651 11.8239 73.335 11.4999C73.018 11.1749 72.58 10.9959 72.125 11.0049C71.665 11.0029 71.225 11.1819 70.9 11.5029C70.575 11.8249 70.392 12.2609 70.394 12.7169Z" fill="white"/>
</svg>
